%TF.GenerationSoftware,KiCad,Pcbnew,8.0.7*%
%TF.CreationDate,2024-12-14T00:48:09+01:00*%
%TF.ProjectId,FF2_20241213_1510,4646325f-3230-4323-9431-3231335f3135,0.2.0*%
%TF.SameCoordinates,Original*%
%TF.FileFunction,Copper,L2,Bot*%
%TF.FilePolarity,Positive*%
%FSLAX46Y46*%
G04 Gerber Fmt 4.6, Leading zero omitted, Abs format (unit mm)*
G04 Created by KiCad (PCBNEW 8.0.7) date 2024-12-14 00:48:09*
%MOMM*%
%LPD*%
G01*
G04 APERTURE LIST*
G04 Aperture macros list*
%AMRotRect*
0 Rectangle, with rotation*
0 The origin of the aperture is its center*
0 $1 length*
0 $2 width*
0 $3 Rotation angle, in degrees counterclockwise*
0 Add horizontal line*
21,1,$1,$2,0,0,$3*%
G04 Aperture macros list end*
%TA.AperFunction,ComponentPad*%
%ADD10R,1.800000X1.400000*%
%TD*%
%TA.AperFunction,ComponentPad*%
%ADD11O,1.800000X1.400000*%
%TD*%
%TA.AperFunction,ComponentPad*%
%ADD12R,1.600000X1.600000*%
%TD*%
%TA.AperFunction,ComponentPad*%
%ADD13C,1.600000*%
%TD*%
%TA.AperFunction,ComponentPad*%
%ADD14O,1.600000X1.600000*%
%TD*%
%TA.AperFunction,ComponentPad*%
%ADD15RotRect,1.500000X1.500000X45.000000*%
%TD*%
%TA.AperFunction,ComponentPad*%
%ADD16C,1.500000*%
%TD*%
%TA.AperFunction,ComponentPad*%
%ADD17R,1.700000X1.700000*%
%TD*%
%TA.AperFunction,ComponentPad*%
%ADD18O,1.700000X1.700000*%
%TD*%
%TA.AperFunction,ComponentPad*%
%ADD19RotRect,1.500000X1.500000X300.000000*%
%TD*%
%TA.AperFunction,SMDPad,CuDef*%
%ADD20R,4.191000X1.092200*%
%TD*%
%TA.AperFunction,ViaPad*%
%ADD21C,0.600000*%
%TD*%
%TA.AperFunction,Conductor*%
%ADD22C,0.800000*%
%TD*%
%TA.AperFunction,Conductor*%
%ADD23C,0.400000*%
%TD*%
G04 APERTURE END LIST*
D10*
%TO.P,D1,1,K*%
%TO.N,+3V3*%
X126238000Y-106050000D03*
D11*
%TO.P,D1,2,A*%
%TO.N,GND*%
X126238000Y-103510000D03*
%TD*%
D12*
%TO.P,C1,1*%
%TO.N,+3V3*%
X109855000Y-103251000D03*
D13*
%TO.P,C1,2*%
%TO.N,GND*%
X109855000Y-105751000D03*
%TD*%
D12*
%TO.P,U1,1,~{RESET}/PB5*%
%TO.N,Net-(U1-~{RESET}{slash}PB5)*%
X113030000Y-107579000D03*
D14*
%TO.P,U1,2,PB3*%
%TO.N,Net-(U1-PB3)*%
X113030000Y-110119000D03*
%TO.P,U1,3,PB4*%
%TO.N,/pb4*%
X113030000Y-112659000D03*
%TO.P,U1,4,GND*%
%TO.N,GND*%
X113030000Y-115199000D03*
%TO.P,U1,5,PB0*%
%TO.N,Net-(U1-PB0)*%
X120650000Y-115199000D03*
%TO.P,U1,6,PB1*%
%TO.N,Net-(U1-PB1)*%
X120650000Y-112659000D03*
%TO.P,U1,7,PB2*%
%TO.N,/pb2*%
X120650000Y-110119000D03*
%TO.P,U1,8,VCC*%
%TO.N,+3V3*%
X120650000Y-107579000D03*
%TD*%
D15*
%TO.P,L1,1,1*%
%TO.N,Net-(L1-Pad1)*%
X123190000Y-112649000D03*
D16*
%TO.P,L1,2,2*%
%TO.N,/pb2*%
X126725534Y-109113466D03*
%TD*%
D17*
%TO.P,J1,1*%
%TO.N,Net-(U1-PB3)*%
X109220000Y-109220000D03*
D18*
%TO.P,J1,2*%
%TO.N,/pb4*%
X109220000Y-111760000D03*
%TO.P,J1,3*%
%TO.N,GND*%
X109220000Y-114300000D03*
%TD*%
D19*
%TO.P,L2,1,1*%
%TO.N,Net-(L2-Pad1)*%
X103954000Y-105961046D03*
D16*
%TO.P,L2,2,2*%
%TO.N,/pb4*%
X106454000Y-110291173D03*
%TD*%
D20*
%TO.P,LED1,1*%
%TO.N,Net-(U1-PB0)*%
X127127000Y-115142902D03*
%TO.P,LED1,2*%
%TO.N,Net-(L1-Pad1)*%
X127127000Y-112695098D03*
%TD*%
%TO.P,LED2,1*%
%TO.N,Net-(U1-PB1)*%
X104013000Y-112695098D03*
%TO.P,LED2,2*%
%TO.N,Net-(L2-Pad1)*%
X104013000Y-115142902D03*
%TD*%
D21*
%TO.N,Net-(L2-Pad1)*%
X107442000Y-113710000D03*
X107442000Y-114554000D03*
%TD*%
D22*
%TO.N,+3V3*%
X120650000Y-107579000D02*
X124709000Y-107579000D01*
X124709000Y-107579000D02*
X126238000Y-106050000D01*
D23*
%TO.N,Net-(U1-PB3)*%
X110119000Y-110119000D02*
X109220000Y-109220000D01*
X113030000Y-110119000D02*
X110119000Y-110119000D01*
%TO.N,/pb4*%
X109220000Y-111760000D02*
X107922827Y-111760000D01*
X112131000Y-111760000D02*
X109220000Y-111760000D01*
X107922827Y-111760000D02*
X106454000Y-110291173D01*
X113030000Y-112659000D02*
X112131000Y-111760000D01*
%TO.N,/pb2*%
X120650000Y-110119000D02*
X125720000Y-110119000D01*
X125720000Y-110119000D02*
X126725534Y-109113466D01*
%TO.N,Net-(L1-Pad1)*%
X127080902Y-112649000D02*
X127127000Y-112695098D01*
X123206746Y-112632255D02*
X123163255Y-112632255D01*
X123190000Y-112649000D02*
X127080902Y-112649000D01*
%TO.N,Net-(L2-Pad1)*%
X107442000Y-114808000D02*
X107442000Y-114427000D01*
X107107098Y-115142902D02*
X107188000Y-115062000D01*
X107188000Y-115062000D02*
X107442000Y-114808000D01*
X107442000Y-113710000D02*
X107442000Y-114427000D01*
X104013000Y-115142902D02*
X107107098Y-115142902D01*
%TO.N,Net-(U1-PB0)*%
X127127000Y-115142902D02*
X120706098Y-115142902D01*
X120706098Y-115142902D02*
X120650000Y-115199000D01*
%TO.N,Net-(U1-PB1)*%
X111125000Y-113030000D02*
X107950000Y-113030000D01*
X119390000Y-113919000D02*
X112014000Y-113919000D01*
X107615098Y-112695098D02*
X104013000Y-112695098D01*
X112014000Y-113919000D02*
X111125000Y-113030000D01*
X120650000Y-112659000D02*
X119390000Y-113919000D01*
X104013000Y-112695098D02*
X104327902Y-113010000D01*
X107950000Y-113030000D02*
X107615098Y-112695098D01*
%TD*%
%TA.AperFunction,Conductor*%
%TO.N,GND*%
G36*
X127003802Y-101900730D02*
G01*
X127262345Y-101916368D01*
X127277426Y-101918199D01*
X127528459Y-101964203D01*
X127543210Y-101967839D01*
X127786869Y-102043765D01*
X127801086Y-102049158D01*
X128033796Y-102153892D01*
X128047267Y-102160962D01*
X128265666Y-102292990D01*
X128278169Y-102301619D01*
X128479073Y-102459017D01*
X128490453Y-102469100D01*
X128670899Y-102649546D01*
X128680983Y-102660927D01*
X128838377Y-102861827D01*
X128847013Y-102874338D01*
X128979036Y-103092730D01*
X128986107Y-103106203D01*
X129090839Y-103338908D01*
X129096235Y-103353135D01*
X129172157Y-103596778D01*
X129175798Y-103611551D01*
X129221798Y-103862561D01*
X129223632Y-103877665D01*
X129238848Y-104129228D01*
X129239270Y-104136196D01*
X129239500Y-104143804D01*
X129239500Y-110999000D01*
X129219498Y-111067121D01*
X129165842Y-111113614D01*
X129113500Y-111125000D01*
X123825000Y-111125000D01*
X123825000Y-111635599D01*
X123804998Y-111703720D01*
X123751342Y-111750213D01*
X123681068Y-111760317D01*
X123616488Y-111730823D01*
X123609905Y-111724694D01*
X123317818Y-111432607D01*
X123317814Y-111432604D01*
X123317811Y-111432601D01*
X123268231Y-111399473D01*
X123268230Y-111399472D01*
X123190000Y-111383912D01*
X123111769Y-111399472D01*
X123111768Y-111399473D01*
X123062188Y-111432602D01*
X123062181Y-111432607D01*
X121973607Y-112521181D01*
X121973602Y-112521188D01*
X121940473Y-112570768D01*
X121940472Y-112570769D01*
X121924912Y-112648999D01*
X121924912Y-112649000D01*
X121940472Y-112727230D01*
X121940473Y-112727231D01*
X121973601Y-112776811D01*
X121973604Y-112776814D01*
X121973607Y-112776818D01*
X123062181Y-113865392D01*
X123062184Y-113865394D01*
X123062189Y-113865399D01*
X123111769Y-113898527D01*
X123190000Y-113914088D01*
X123268231Y-113898527D01*
X123317811Y-113865399D01*
X123609906Y-113573303D01*
X123672217Y-113539280D01*
X123743032Y-113544344D01*
X123799868Y-113586891D01*
X123824679Y-113653411D01*
X123825000Y-113662400D01*
X123825000Y-114616402D01*
X123804998Y-114684523D01*
X123751342Y-114731016D01*
X123699000Y-114742402D01*
X121615919Y-114742402D01*
X121547798Y-114722400D01*
X121504798Y-114675799D01*
X121485910Y-114640462D01*
X121471400Y-114622782D01*
X121414952Y-114554000D01*
X121360883Y-114488117D01*
X121208538Y-114363090D01*
X121164408Y-114339502D01*
X121034728Y-114270186D01*
X120900674Y-114229521D01*
X120846132Y-114212976D01*
X120846131Y-114212975D01*
X120846125Y-114212974D01*
X120650003Y-114193659D01*
X120649997Y-114193659D01*
X120453875Y-114212974D01*
X120453873Y-114212974D01*
X120265271Y-114270186D01*
X120091461Y-114363090D01*
X119939117Y-114488117D01*
X119814090Y-114640461D01*
X119721186Y-114814271D01*
X119663974Y-115002873D01*
X119663974Y-115002875D01*
X119644659Y-115198996D01*
X119644659Y-115199003D01*
X119663974Y-115395124D01*
X119663974Y-115395126D01*
X119721186Y-115583728D01*
X119739325Y-115617663D01*
X119814090Y-115757538D01*
X119939117Y-115909883D01*
X120091462Y-116034910D01*
X120265273Y-116127814D01*
X120453868Y-116185024D01*
X120453872Y-116185024D01*
X120453874Y-116185025D01*
X120649997Y-116204341D01*
X120650000Y-116204341D01*
X120650003Y-116204341D01*
X120846124Y-116185025D01*
X120846126Y-116185025D01*
X120846127Y-116185024D01*
X120846132Y-116185024D01*
X121034727Y-116127814D01*
X121208538Y-116034910D01*
X121360883Y-115909883D01*
X121485910Y-115757538D01*
X121560997Y-115617060D01*
X121564768Y-115610006D01*
X121614520Y-115559358D01*
X121675890Y-115543402D01*
X123699000Y-115543402D01*
X123767121Y-115563404D01*
X123813614Y-115617060D01*
X123825000Y-115669402D01*
X123825000Y-116413500D01*
X123804998Y-116481621D01*
X123751342Y-116528114D01*
X123699000Y-116539500D01*
X107441000Y-116539500D01*
X107372879Y-116519498D01*
X107326386Y-116465842D01*
X107315000Y-116413500D01*
X107315000Y-115870500D01*
X108248500Y-115870500D01*
X108758500Y-115870500D01*
X108758500Y-115849512D01*
X109264500Y-115849512D01*
X109264500Y-115870500D01*
X109774500Y-115870500D01*
X109774500Y-115757811D01*
X109560832Y-115822626D01*
X109554871Y-115824275D01*
X109542782Y-115827303D01*
X109536759Y-115828656D01*
X109512386Y-115833506D01*
X109506289Y-115834564D01*
X109493943Y-115836396D01*
X109487797Y-115837154D01*
X109310496Y-115854614D01*
X109264500Y-115849512D01*
X108758500Y-115849512D01*
X108758500Y-115786021D01*
X108657465Y-115755374D01*
X108651596Y-115753435D01*
X108639851Y-115749233D01*
X108634072Y-115747004D01*
X108611113Y-115737493D01*
X108605466Y-115734990D01*
X108594194Y-115729659D01*
X108588668Y-115726877D01*
X108384344Y-115617663D01*
X108378966Y-115614616D01*
X108368271Y-115608206D01*
X108363045Y-115604898D01*
X108342382Y-115591092D01*
X108337323Y-115587528D01*
X108327305Y-115580098D01*
X108322430Y-115576294D01*
X108248500Y-115515621D01*
X108248500Y-115870500D01*
X107315000Y-115870500D01*
X107315000Y-115553583D01*
X107335002Y-115485462D01*
X107351904Y-115464488D01*
X107353008Y-115463383D01*
X107353011Y-115463382D01*
X107373812Y-115442580D01*
X110280500Y-115442580D01*
X110280500Y-115870500D01*
X110790500Y-115870500D01*
X111296500Y-115870500D01*
X111681289Y-115870500D01*
X111649541Y-115811104D01*
X111646761Y-115805582D01*
X111641430Y-115794311D01*
X111638925Y-115788660D01*
X111629414Y-115765701D01*
X111627185Y-115759922D01*
X111622983Y-115748177D01*
X111621044Y-115742308D01*
X111556651Y-115530030D01*
X111555002Y-115524069D01*
X111551974Y-115511980D01*
X111550621Y-115505957D01*
X111545771Y-115481584D01*
X111544712Y-115475482D01*
X111542881Y-115463139D01*
X111542124Y-115457000D01*
X111532620Y-115360500D01*
X111296500Y-115360500D01*
X111296500Y-115870500D01*
X110790500Y-115870500D01*
X110790500Y-115360500D01*
X110362580Y-115360500D01*
X110349315Y-115376664D01*
X110345274Y-115381348D01*
X110336899Y-115390588D01*
X110332636Y-115395065D01*
X110315065Y-115412636D01*
X110310588Y-115416899D01*
X110301348Y-115425274D01*
X110296663Y-115429316D01*
X110280500Y-115442580D01*
X107373812Y-115442580D01*
X107416188Y-115400202D01*
X107416194Y-115400199D01*
X107762474Y-115053919D01*
X107762480Y-115053913D01*
X107815207Y-114962588D01*
X107836800Y-114881998D01*
X107863283Y-114832097D01*
X107867377Y-114827373D01*
X107927165Y-114696457D01*
X107947647Y-114554000D01*
X107947646Y-114553998D01*
X107948035Y-114551298D01*
X107973969Y-114494508D01*
X107956054Y-114482422D01*
X107928378Y-114419983D01*
X107927165Y-114411544D01*
X107927165Y-114411543D01*
X107867377Y-114280627D01*
X107862507Y-114273050D01*
X107864440Y-114271807D01*
X107842829Y-114214024D01*
X107842500Y-114204922D01*
X107842500Y-114059078D01*
X107862502Y-113990957D01*
X107862507Y-113990950D01*
X107867376Y-113983374D01*
X107867375Y-113983374D01*
X107867377Y-113983373D01*
X107927165Y-113852457D01*
X107947647Y-113710000D01*
X107928155Y-113574429D01*
X107938259Y-113504158D01*
X107984752Y-113450502D01*
X108052873Y-113430500D01*
X108308849Y-113430500D01*
X108376970Y-113450502D01*
X108423463Y-113504158D01*
X108433567Y-113574432D01*
X108406248Y-113636434D01*
X108342732Y-113713827D01*
X108245232Y-113896237D01*
X108185190Y-114094170D01*
X108179692Y-114149999D01*
X108179693Y-114150000D01*
X108742555Y-114150000D01*
X108720000Y-114234174D01*
X108720000Y-114365826D01*
X108742555Y-114450000D01*
X108179693Y-114450000D01*
X108154351Y-114477959D01*
X108167977Y-114486716D01*
X108193328Y-114532654D01*
X108245232Y-114703762D01*
X108342732Y-114886172D01*
X108473945Y-115046054D01*
X108633827Y-115177267D01*
X108816237Y-115274767D01*
X109014170Y-115334809D01*
X109069999Y-115340307D01*
X109070000Y-115340306D01*
X109070000Y-114777445D01*
X109154174Y-114800000D01*
X109285826Y-114800000D01*
X109370000Y-114777445D01*
X109370000Y-115340307D01*
X109425829Y-115334809D01*
X109623762Y-115274767D01*
X109806172Y-115177267D01*
X109966054Y-115046054D01*
X110097267Y-114886172D01*
X110114196Y-114854500D01*
X110677811Y-114854500D01*
X110790500Y-114854500D01*
X111296500Y-114854500D01*
X111560737Y-114854500D01*
X111599574Y-114726467D01*
X111500734Y-114669402D01*
X111493732Y-114665048D01*
X111479905Y-114655809D01*
X111473203Y-114651007D01*
X111446905Y-114630828D01*
X111440531Y-114625596D01*
X111428028Y-114614631D01*
X111422011Y-114608995D01*
X111296500Y-114483484D01*
X111296500Y-114854500D01*
X110790500Y-114854500D01*
X110790500Y-114344500D01*
X110769513Y-114344500D01*
X110774614Y-114390496D01*
X110757154Y-114567797D01*
X110756396Y-114573943D01*
X110754564Y-114586289D01*
X110753506Y-114592386D01*
X110748656Y-114616759D01*
X110747303Y-114622782D01*
X110744275Y-114634871D01*
X110742626Y-114640832D01*
X110677811Y-114854500D01*
X110114196Y-114854500D01*
X110194767Y-114703762D01*
X110254809Y-114505829D01*
X110260307Y-114450000D01*
X109697445Y-114450000D01*
X109720000Y-114365826D01*
X109720000Y-114234174D01*
X109697445Y-114150000D01*
X110260307Y-114150000D01*
X110260307Y-114149999D01*
X110254809Y-114094170D01*
X110194767Y-113896237D01*
X110097267Y-113713827D01*
X110033752Y-113636434D01*
X110005998Y-113571087D01*
X110017980Y-113501108D01*
X110065892Y-113448717D01*
X110131151Y-113430500D01*
X110906917Y-113430500D01*
X110975038Y-113450502D01*
X110996007Y-113467400D01*
X111768087Y-114239480D01*
X111859412Y-114292207D01*
X111961273Y-114319500D01*
X111961274Y-114319500D01*
X112191739Y-114319500D01*
X112259860Y-114339502D01*
X112306353Y-114393158D01*
X112316457Y-114463432D01*
X112289138Y-114525434D01*
X112194507Y-114640740D01*
X112101650Y-114814464D01*
X112044467Y-115002972D01*
X112039934Y-115048998D01*
X112039935Y-115049000D01*
X112656082Y-115049000D01*
X112630000Y-115146339D01*
X112630000Y-115251661D01*
X112656082Y-115349000D01*
X112039935Y-115349000D01*
X112039934Y-115349001D01*
X112044467Y-115395027D01*
X112101650Y-115583535D01*
X112194507Y-115757259D01*
X112319472Y-115909527D01*
X112471740Y-116034492D01*
X112645464Y-116127349D01*
X112833972Y-116184532D01*
X112879998Y-116189065D01*
X112880000Y-116189064D01*
X112880000Y-115572918D01*
X112977339Y-115599000D01*
X113082661Y-115599000D01*
X113180000Y-115572918D01*
X113180000Y-116189064D01*
X113180001Y-116189065D01*
X113226027Y-116184532D01*
X113414535Y-116127349D01*
X113588259Y-116034492D01*
X113740527Y-115909527D01*
X113772556Y-115870500D01*
X114378711Y-115870500D01*
X114854500Y-115870500D01*
X115360500Y-115870500D01*
X115870500Y-115870500D01*
X116376500Y-115870500D01*
X116886500Y-115870500D01*
X117392500Y-115870500D01*
X117902500Y-115870500D01*
X118408500Y-115870500D01*
X118918500Y-115870500D01*
X118918500Y-115360500D01*
X118408500Y-115360500D01*
X118408500Y-115870500D01*
X117902500Y-115870500D01*
X117902500Y-115360500D01*
X117392500Y-115360500D01*
X117392500Y-115870500D01*
X116886500Y-115870500D01*
X116886500Y-115360500D01*
X116376500Y-115360500D01*
X116376500Y-115870500D01*
X115870500Y-115870500D01*
X115870500Y-115360500D01*
X115360500Y-115360500D01*
X115360500Y-115870500D01*
X114854500Y-115870500D01*
X114854500Y-115360500D01*
X114527380Y-115360500D01*
X114517876Y-115457000D01*
X114517119Y-115463139D01*
X114515288Y-115475482D01*
X114514229Y-115481584D01*
X114509379Y-115505957D01*
X114508026Y-115511980D01*
X114504998Y-115524069D01*
X114503349Y-115530030D01*
X114438956Y-115742308D01*
X114437017Y-115748177D01*
X114432815Y-115759922D01*
X114430586Y-115765701D01*
X114421075Y-115788660D01*
X114418570Y-115794311D01*
X114413239Y-115805582D01*
X114410459Y-115811104D01*
X114378711Y-115870500D01*
X113772556Y-115870500D01*
X113865492Y-115757259D01*
X113958349Y-115583535D01*
X114015532Y-115395027D01*
X114020065Y-115349001D01*
X114020065Y-115349000D01*
X113403918Y-115349000D01*
X113430000Y-115251661D01*
X113430000Y-115146339D01*
X113403918Y-115049000D01*
X114020065Y-115049000D01*
X114020065Y-115048998D01*
X114015532Y-115002972D01*
X113970494Y-114854500D01*
X115360500Y-114854500D01*
X115870500Y-114854500D01*
X116376500Y-114854500D01*
X116886500Y-114854500D01*
X117392500Y-114854500D01*
X117902500Y-114854500D01*
X118408500Y-114854500D01*
X118918500Y-114854500D01*
X118918500Y-114825500D01*
X118408500Y-114825500D01*
X118408500Y-114854500D01*
X117902500Y-114854500D01*
X117902500Y-114825500D01*
X117392500Y-114825500D01*
X117392500Y-114854500D01*
X116886500Y-114854500D01*
X116886500Y-114825500D01*
X116376500Y-114825500D01*
X116376500Y-114854500D01*
X115870500Y-114854500D01*
X115870500Y-114825500D01*
X115360500Y-114825500D01*
X115360500Y-114854500D01*
X113970494Y-114854500D01*
X113958349Y-114814464D01*
X113865492Y-114640740D01*
X113770862Y-114525434D01*
X113743108Y-114460087D01*
X113755089Y-114390109D01*
X113803002Y-114337717D01*
X113868261Y-114319500D01*
X119442725Y-114319500D01*
X119442727Y-114319500D01*
X119544588Y-114292207D01*
X119635913Y-114239480D01*
X120036892Y-113838500D01*
X121587485Y-113838500D01*
X121966500Y-113838500D01*
X121966500Y-113485302D01*
X121933938Y-113452740D01*
X121926305Y-113467022D01*
X121923258Y-113472400D01*
X121916848Y-113483095D01*
X121913540Y-113488321D01*
X121899734Y-113508984D01*
X121896174Y-113514038D01*
X121888744Y-113524057D01*
X121884936Y-113528937D01*
X121744143Y-113700492D01*
X121740102Y-113705176D01*
X121731727Y-113714416D01*
X121727464Y-113718893D01*
X121709893Y-113736464D01*
X121705416Y-113740727D01*
X121696176Y-113749102D01*
X121691492Y-113753143D01*
X121587485Y-113838500D01*
X120036892Y-113838500D01*
X120228986Y-113646405D01*
X120291297Y-113612382D01*
X120354656Y-113614927D01*
X120453868Y-113645024D01*
X120453872Y-113645024D01*
X120453875Y-113645025D01*
X120649997Y-113664341D01*
X120650000Y-113664341D01*
X120650003Y-113664341D01*
X120846124Y-113645025D01*
X120846126Y-113645025D01*
X120846127Y-113645024D01*
X120846132Y-113645024D01*
X121034727Y-113587814D01*
X121208538Y-113494910D01*
X121360883Y-113369883D01*
X121485910Y-113217538D01*
X121578814Y-113043727D01*
X121636024Y-112855132D01*
X121650365Y-112709525D01*
X121655341Y-112659003D01*
X121655341Y-112658996D01*
X121636025Y-112462875D01*
X121636025Y-112462873D01*
X121636024Y-112462870D01*
X121636024Y-112462868D01*
X121578814Y-112274273D01*
X121485910Y-112100462D01*
X121360883Y-111948117D01*
X121208538Y-111823090D01*
X121123367Y-111777565D01*
X121034728Y-111730186D01*
X120846125Y-111672974D01*
X120650003Y-111653659D01*
X120649997Y-111653659D01*
X120453875Y-111672974D01*
X120453873Y-111672974D01*
X120265271Y-111730186D01*
X120091461Y-111823090D01*
X119939117Y-111948117D01*
X119814090Y-112100461D01*
X119721186Y-112274271D01*
X119663974Y-112462873D01*
X119663974Y-112462875D01*
X119644659Y-112658996D01*
X119644659Y-112659003D01*
X119663974Y-112855128D01*
X119694071Y-112954342D01*
X119694705Y-113025336D01*
X119662593Y-113080013D01*
X119261012Y-113481595D01*
X119198699Y-113515620D01*
X119171916Y-113518500D01*
X113885321Y-113518500D01*
X113817200Y-113498498D01*
X113770707Y-113444842D01*
X113760603Y-113374568D01*
X113787922Y-113312566D01*
X113813609Y-113281266D01*
X113865910Y-113217538D01*
X113958814Y-113043727D01*
X114016024Y-112855132D01*
X114030365Y-112709525D01*
X114035341Y-112659003D01*
X114035341Y-112658996D01*
X114016025Y-112462875D01*
X114016025Y-112462873D01*
X114016024Y-112462870D01*
X114016024Y-112462868D01*
X113970410Y-112312500D01*
X114499179Y-112312500D01*
X114503842Y-112327872D01*
X114505490Y-112333828D01*
X114508519Y-112345919D01*
X114509874Y-112351953D01*
X114514723Y-112376327D01*
X114515779Y-112382412D01*
X114517611Y-112394754D01*
X114518370Y-112400905D01*
X114540122Y-112621771D01*
X114540577Y-112627936D01*
X114541189Y-112640391D01*
X114541341Y-112646575D01*
X114541341Y-112671425D01*
X114541189Y-112677609D01*
X114540577Y-112690064D01*
X114540122Y-112696229D01*
X114527686Y-112822500D01*
X114854500Y-112822500D01*
X115360500Y-112822500D01*
X115870500Y-112822500D01*
X116376500Y-112822500D01*
X116886500Y-112822500D01*
X117392500Y-112822500D01*
X117902500Y-112822500D01*
X118408500Y-112822500D01*
X118918500Y-112822500D01*
X118918500Y-112312500D01*
X118408500Y-112312500D01*
X118408500Y-112822500D01*
X117902500Y-112822500D01*
X117902500Y-112312500D01*
X117392500Y-112312500D01*
X117392500Y-112822500D01*
X116886500Y-112822500D01*
X116886500Y-112312500D01*
X116376500Y-112312500D01*
X116376500Y-112822500D01*
X115870500Y-112822500D01*
X115870500Y-112312500D01*
X115360500Y-112312500D01*
X115360500Y-112822500D01*
X114854500Y-112822500D01*
X114854500Y-112312500D01*
X114499179Y-112312500D01*
X113970410Y-112312500D01*
X113958814Y-112274273D01*
X113865910Y-112100462D01*
X113740883Y-111948117D01*
X113588538Y-111823090D01*
X113557500Y-111806500D01*
X114344500Y-111806500D01*
X114854500Y-111806500D01*
X115360500Y-111806500D01*
X115870500Y-111806500D01*
X116376500Y-111806500D01*
X116886500Y-111806500D01*
X117392500Y-111806500D01*
X117902500Y-111806500D01*
X118408500Y-111806500D01*
X118918500Y-111806500D01*
X118918500Y-111777565D01*
X119424500Y-111777565D01*
X119555857Y-111617508D01*
X119559898Y-111612824D01*
X119568273Y-111603584D01*
X119572536Y-111599107D01*
X119590107Y-111581536D01*
X119594584Y-111577273D01*
X119603824Y-111568898D01*
X119608508Y-111564857D01*
X119780063Y-111424064D01*
X119784943Y-111420256D01*
X119794962Y-111412826D01*
X119800016Y-111409266D01*
X119820679Y-111395460D01*
X119825905Y-111392152D01*
X119831164Y-111389000D01*
X121468835Y-111389000D01*
X121474095Y-111392152D01*
X121479321Y-111395460D01*
X121499984Y-111409266D01*
X121505038Y-111412826D01*
X121515057Y-111420256D01*
X121519937Y-111424064D01*
X121691492Y-111564857D01*
X121696176Y-111568898D01*
X121705416Y-111577273D01*
X121709893Y-111581536D01*
X121727464Y-111599107D01*
X121731727Y-111603584D01*
X121740102Y-111612824D01*
X121744143Y-111617508D01*
X121884936Y-111789063D01*
X121888744Y-111793943D01*
X121896174Y-111803962D01*
X121897962Y-111806500D01*
X121966500Y-111806500D01*
X121966500Y-111296500D01*
X121589922Y-111296500D01*
X121519937Y-111353936D01*
X121515057Y-111357744D01*
X121505038Y-111365174D01*
X121499984Y-111368734D01*
X121479321Y-111382540D01*
X121474095Y-111385848D01*
X121468835Y-111389000D01*
X119831164Y-111389000D01*
X119825905Y-111385848D01*
X119820679Y-111382540D01*
X119800016Y-111368734D01*
X119794962Y-111365174D01*
X119784943Y-111357744D01*
X119780063Y-111353936D01*
X119710078Y-111296500D01*
X119424500Y-111296500D01*
X119424500Y-111777565D01*
X118918500Y-111777565D01*
X118918500Y-111296500D01*
X118408500Y-111296500D01*
X118408500Y-111806500D01*
X117902500Y-111806500D01*
X117902500Y-111296500D01*
X117392500Y-111296500D01*
X117392500Y-111806500D01*
X116886500Y-111806500D01*
X116886500Y-111296500D01*
X116376500Y-111296500D01*
X116376500Y-111806500D01*
X115870500Y-111806500D01*
X115870500Y-111296500D01*
X115360500Y-111296500D01*
X115360500Y-111806500D01*
X114854500Y-111806500D01*
X114854500Y-111296500D01*
X114344500Y-111296500D01*
X114344500Y-111806500D01*
X113557500Y-111806500D01*
X113503367Y-111777565D01*
X113414728Y-111730186D01*
X113226125Y-111672974D01*
X113030003Y-111653659D01*
X113029997Y-111653659D01*
X112833872Y-111672974D01*
X112734654Y-111703071D01*
X112663660Y-111703704D01*
X112608985Y-111671591D01*
X112376919Y-111439525D01*
X112376909Y-111439517D01*
X112285592Y-111386795D01*
X112285590Y-111386794D01*
X112285588Y-111386793D01*
X112183727Y-111359500D01*
X112183726Y-111359500D01*
X110272599Y-111359500D01*
X110204478Y-111339498D01*
X110161477Y-111292896D01*
X110097686Y-111173552D01*
X110097685Y-111173550D01*
X109966410Y-111013590D01*
X109806450Y-110882315D01*
X109806448Y-110882314D01*
X109806447Y-110882313D01*
X109623954Y-110784768D01*
X109425934Y-110724700D01*
X109425933Y-110724699D01*
X109425927Y-110724698D01*
X109220003Y-110704417D01*
X109219997Y-110704417D01*
X109014072Y-110724698D01*
X108816045Y-110784768D01*
X108633552Y-110882313D01*
X108473590Y-111013590D01*
X108342313Y-111173552D01*
X108278523Y-111292896D01*
X108228771Y-111343544D01*
X108167401Y-111359500D01*
X108140910Y-111359500D01*
X108072789Y-111339498D01*
X108051815Y-111322595D01*
X107401318Y-110672098D01*
X107367292Y-110609786D01*
X107369839Y-110546426D01*
X107371886Y-110539679D01*
X107390747Y-110477504D01*
X107390747Y-110477501D01*
X107390748Y-110477499D01*
X107409099Y-110291176D01*
X107409099Y-110291169D01*
X107390748Y-110104849D01*
X107390746Y-110104838D01*
X107336398Y-109925676D01*
X107336396Y-109925672D01*
X107263249Y-109788823D01*
X107248136Y-109760548D01*
X107129357Y-109615816D01*
X106984625Y-109497037D01*
X106950809Y-109478962D01*
X106819500Y-109408776D01*
X106819496Y-109408774D01*
X106640334Y-109354426D01*
X106640323Y-109354424D01*
X106454003Y-109336074D01*
X106453997Y-109336074D01*
X106267676Y-109354424D01*
X106267665Y-109354426D01*
X106088503Y-109408774D01*
X106088499Y-109408776D01*
X105923374Y-109497037D01*
X105778643Y-109615816D01*
X105659864Y-109760547D01*
X105571603Y-109925672D01*
X105571601Y-109925676D01*
X105517253Y-110104838D01*
X105517251Y-110104849D01*
X105498901Y-110291169D01*
X105498901Y-110291176D01*
X105517251Y-110477496D01*
X105517253Y-110477507D01*
X105571601Y-110656669D01*
X105571603Y-110656673D01*
X105659864Y-110821798D01*
X105739690Y-110919066D01*
X105767444Y-110984413D01*
X105755462Y-111054392D01*
X105707550Y-111106784D01*
X105642291Y-111125000D01*
X102026500Y-111125000D01*
X101958379Y-111104998D01*
X101911886Y-111051342D01*
X101900500Y-110999000D01*
X101900500Y-110619000D01*
X102406500Y-110619000D01*
X102662500Y-110619000D01*
X103168500Y-110619000D01*
X103678500Y-110619000D01*
X104184500Y-110619000D01*
X104694500Y-110619000D01*
X104694500Y-110280500D01*
X104184500Y-110280500D01*
X104184500Y-110619000D01*
X103678500Y-110619000D01*
X103678500Y-110280500D01*
X103168500Y-110280500D01*
X103168500Y-110619000D01*
X102662500Y-110619000D01*
X102662500Y-110280500D01*
X102406500Y-110280500D01*
X102406500Y-110619000D01*
X101900500Y-110619000D01*
X101900500Y-109774500D01*
X102406500Y-109774500D01*
X102662500Y-109774500D01*
X103168500Y-109774500D01*
X103678500Y-109774500D01*
X104184500Y-109774500D01*
X104694500Y-109774500D01*
X104694500Y-109546552D01*
X105200500Y-109546552D01*
X105219469Y-109511064D01*
X105222516Y-109505686D01*
X105228926Y-109494991D01*
X105232234Y-109489765D01*
X105246040Y-109469102D01*
X105249600Y-109464048D01*
X105257030Y-109454029D01*
X105260838Y-109449149D01*
X105395383Y-109285207D01*
X105399424Y-109280523D01*
X105407799Y-109271283D01*
X105412062Y-109266806D01*
X105414368Y-109264500D01*
X107493632Y-109264500D01*
X107495938Y-109266806D01*
X107500201Y-109271283D01*
X107508576Y-109280523D01*
X107512617Y-109285207D01*
X107647162Y-109449149D01*
X107650970Y-109454029D01*
X107658400Y-109464048D01*
X107661960Y-109469102D01*
X107663500Y-109471406D01*
X107663500Y-109264500D01*
X107493632Y-109264500D01*
X105414368Y-109264500D01*
X105200500Y-109264500D01*
X105200500Y-109546552D01*
X104694500Y-109546552D01*
X104694500Y-109264500D01*
X104184500Y-109264500D01*
X104184500Y-109774500D01*
X103678500Y-109774500D01*
X103678500Y-109264500D01*
X103168500Y-109264500D01*
X103168500Y-109774500D01*
X102662500Y-109774500D01*
X102662500Y-109264500D01*
X102406500Y-109264500D01*
X102406500Y-109774500D01*
X101900500Y-109774500D01*
X101900500Y-108758500D01*
X102406500Y-108758500D01*
X102662500Y-108758500D01*
X103168500Y-108758500D01*
X103678500Y-108758500D01*
X104184500Y-108758500D01*
X104694500Y-108758500D01*
X105200500Y-108758500D01*
X105710500Y-108758500D01*
X106216500Y-108758500D01*
X106726500Y-108758500D01*
X107232500Y-108758500D01*
X107663500Y-108758500D01*
X107663500Y-108350249D01*
X108169500Y-108350249D01*
X108169500Y-110089750D01*
X108175318Y-110119000D01*
X108181133Y-110148231D01*
X108225448Y-110214552D01*
X108291769Y-110258867D01*
X108350252Y-110270500D01*
X109651917Y-110270500D01*
X109720038Y-110290502D01*
X109741007Y-110307400D01*
X109873087Y-110439480D01*
X109873089Y-110439481D01*
X109873090Y-110439482D01*
X109891531Y-110450129D01*
X109964412Y-110492207D01*
X110066273Y-110519500D01*
X112034096Y-110519500D01*
X112102217Y-110539502D01*
X112145216Y-110586102D01*
X112194090Y-110677538D01*
X112319117Y-110829883D01*
X112471462Y-110954910D01*
X112645273Y-111047814D01*
X112833868Y-111105024D01*
X112833872Y-111105024D01*
X112833874Y-111105025D01*
X113029997Y-111124341D01*
X113030000Y-111124341D01*
X113030003Y-111124341D01*
X113226124Y-111105025D01*
X113226126Y-111105025D01*
X113226127Y-111105024D01*
X113226132Y-111105024D01*
X113414727Y-111047814D01*
X113588538Y-110954910D01*
X113740883Y-110829883D01*
X113773204Y-110790500D01*
X114379278Y-110790500D01*
X114854500Y-110790500D01*
X115360500Y-110790500D01*
X115870500Y-110790500D01*
X116376500Y-110790500D01*
X116886500Y-110790500D01*
X117392500Y-110790500D01*
X117902500Y-110790500D01*
X118408500Y-110790500D01*
X118918500Y-110790500D01*
X118918500Y-110280500D01*
X118408500Y-110280500D01*
X118408500Y-110790500D01*
X117902500Y-110790500D01*
X117902500Y-110280500D01*
X117392500Y-110280500D01*
X117392500Y-110790500D01*
X116886500Y-110790500D01*
X116886500Y-110280500D01*
X116376500Y-110280500D01*
X116376500Y-110790500D01*
X115870500Y-110790500D01*
X115870500Y-110280500D01*
X115360500Y-110280500D01*
X115360500Y-110790500D01*
X114854500Y-110790500D01*
X114854500Y-110280500D01*
X114527883Y-110280500D01*
X114518370Y-110377095D01*
X114517611Y-110383246D01*
X114515779Y-110395588D01*
X114514723Y-110401673D01*
X114509874Y-110426047D01*
X114508519Y-110432081D01*
X114505490Y-110444172D01*
X114503842Y-110450129D01*
X114439420Y-110662502D01*
X114437477Y-110668382D01*
X114433274Y-110680126D01*
X114431051Y-110685888D01*
X114421541Y-110708847D01*
X114419036Y-110714499D01*
X114413705Y-110725771D01*
X114410923Y-110731297D01*
X114379278Y-110790500D01*
X113773204Y-110790500D01*
X113865910Y-110677538D01*
X113958814Y-110503727D01*
X114016024Y-110315132D01*
X114016862Y-110306628D01*
X114035341Y-110119003D01*
X114035341Y-110118996D01*
X119644659Y-110118996D01*
X119644659Y-110119003D01*
X119663974Y-110315124D01*
X119663974Y-110315126D01*
X119721186Y-110503728D01*
X119764351Y-110584483D01*
X119814090Y-110677538D01*
X119939117Y-110829883D01*
X120091462Y-110954910D01*
X120265273Y-111047814D01*
X120453868Y-111105024D01*
X120453872Y-111105024D01*
X120453874Y-111105025D01*
X120649997Y-111124341D01*
X120650000Y-111124341D01*
X120650003Y-111124341D01*
X120846124Y-111105025D01*
X120846126Y-111105025D01*
X120846127Y-111105024D01*
X120846132Y-111105024D01*
X121034727Y-111047814D01*
X121208538Y-110954910D01*
X121360883Y-110829883D01*
X121485910Y-110677538D01*
X121534782Y-110586102D01*
X121536372Y-110584483D01*
X126536500Y-110584483D01*
X126536500Y-110619000D01*
X127046500Y-110619000D01*
X127046500Y-110538130D01*
X127040905Y-110539679D01*
X127028814Y-110542708D01*
X127022780Y-110544063D01*
X126998406Y-110548912D01*
X126992321Y-110549968D01*
X126979979Y-110551800D01*
X126973829Y-110552559D01*
X126762765Y-110573346D01*
X126756598Y-110573801D01*
X126744142Y-110574413D01*
X126737959Y-110574565D01*
X126713109Y-110574565D01*
X126706926Y-110574413D01*
X126694470Y-110573801D01*
X126688303Y-110573346D01*
X126560249Y-110560734D01*
X126536500Y-110584483D01*
X121536372Y-110584483D01*
X121584534Y-110535456D01*
X121645904Y-110519500D01*
X125772725Y-110519500D01*
X125772727Y-110519500D01*
X125874588Y-110492207D01*
X125965913Y-110439480D01*
X126087415Y-110317977D01*
X127552500Y-110317977D01*
X127552500Y-110619000D01*
X128062500Y-110619000D01*
X128568500Y-110619000D01*
X128733500Y-110619000D01*
X128733500Y-110280500D01*
X128568500Y-110280500D01*
X128568500Y-110619000D01*
X128062500Y-110619000D01*
X128062500Y-110280500D01*
X127599395Y-110280500D01*
X127567558Y-110306628D01*
X127562678Y-110310436D01*
X127552659Y-110317866D01*
X127552500Y-110317977D01*
X126087415Y-110317977D01*
X126344609Y-110060782D01*
X126406919Y-110026759D01*
X126470279Y-110029305D01*
X126539199Y-110050212D01*
X126539200Y-110050212D01*
X126539203Y-110050213D01*
X126539206Y-110050213D01*
X126539210Y-110050214D01*
X126725531Y-110068565D01*
X126725534Y-110068565D01*
X126725537Y-110068565D01*
X126911857Y-110050214D01*
X126911859Y-110050213D01*
X126911865Y-110050213D01*
X126989182Y-110026759D01*
X127091030Y-109995864D01*
X127091032Y-109995862D01*
X127091035Y-109995862D01*
X127256159Y-109907602D01*
X127400891Y-109788823D01*
X127412646Y-109774500D01*
X128568500Y-109774500D01*
X128733500Y-109774500D01*
X128733500Y-109264500D01*
X128568500Y-109264500D01*
X128568500Y-109774500D01*
X127412646Y-109774500D01*
X127519670Y-109644091D01*
X127607930Y-109478967D01*
X127616976Y-109449149D01*
X127662280Y-109299800D01*
X127662282Y-109299789D01*
X127680633Y-109113469D01*
X127680633Y-109113462D01*
X127662282Y-108927142D01*
X127662280Y-108927131D01*
X127611127Y-108758500D01*
X128568500Y-108758500D01*
X128733500Y-108758500D01*
X128733500Y-108248500D01*
X128568500Y-108248500D01*
X128568500Y-108758500D01*
X127611127Y-108758500D01*
X127607932Y-108747969D01*
X127607930Y-108747965D01*
X127586061Y-108707051D01*
X127519670Y-108582841D01*
X127400891Y-108438109D01*
X127256159Y-108319330D01*
X127242554Y-108312058D01*
X127123645Y-108248500D01*
X127899868Y-108248500D01*
X127918696Y-108271442D01*
X127922504Y-108276322D01*
X127929934Y-108286341D01*
X127933494Y-108291395D01*
X127947300Y-108312058D01*
X127950608Y-108317284D01*
X127957018Y-108327979D01*
X127960065Y-108333357D01*
X128060039Y-108520396D01*
X128062500Y-108525284D01*
X128062500Y-108248500D01*
X127899868Y-108248500D01*
X127123645Y-108248500D01*
X127091034Y-108231069D01*
X127091030Y-108231067D01*
X126911868Y-108176719D01*
X126911857Y-108176717D01*
X126725537Y-108158367D01*
X126725531Y-108158367D01*
X126539210Y-108176717D01*
X126539199Y-108176719D01*
X126360037Y-108231067D01*
X126360033Y-108231069D01*
X126194908Y-108319330D01*
X126050177Y-108438109D01*
X125931398Y-108582840D01*
X125843137Y-108747965D01*
X125843135Y-108747969D01*
X125788787Y-108927131D01*
X125788785Y-108927142D01*
X125770435Y-109113462D01*
X125770435Y-109113469D01*
X125788785Y-109299792D01*
X125809694Y-109368721D01*
X125810327Y-109439715D01*
X125778215Y-109494390D01*
X125591012Y-109681595D01*
X125528700Y-109715620D01*
X125501916Y-109718500D01*
X121645904Y-109718500D01*
X121577783Y-109698498D01*
X121534782Y-109651896D01*
X121531012Y-109644842D01*
X121485910Y-109560462D01*
X121360883Y-109408117D01*
X121208538Y-109283090D01*
X121034728Y-109190186D01*
X120846125Y-109132974D01*
X120650003Y-109113659D01*
X120649997Y-109113659D01*
X120453875Y-109132974D01*
X120453873Y-109132974D01*
X120265271Y-109190186D01*
X120091461Y-109283090D01*
X119939117Y-109408117D01*
X119814090Y-109560461D01*
X119721186Y-109734271D01*
X119663974Y-109922873D01*
X119663974Y-109922875D01*
X119644659Y-110118996D01*
X114035341Y-110118996D01*
X114016025Y-109922875D01*
X114016025Y-109922873D01*
X114016024Y-109922870D01*
X114016024Y-109922868D01*
X113958814Y-109734273D01*
X113865910Y-109560462D01*
X113740883Y-109408117D01*
X113709588Y-109382434D01*
X114344500Y-109382434D01*
X114410923Y-109506703D01*
X114413705Y-109512229D01*
X114419036Y-109523501D01*
X114421541Y-109529153D01*
X114431051Y-109552112D01*
X114433274Y-109557874D01*
X114437477Y-109569618D01*
X114439420Y-109575498D01*
X114499786Y-109774500D01*
X114854500Y-109774500D01*
X115360500Y-109774500D01*
X115870500Y-109774500D01*
X116376500Y-109774500D01*
X116886500Y-109774500D01*
X117392500Y-109774500D01*
X117902500Y-109774500D01*
X118408500Y-109774500D01*
X118918500Y-109774500D01*
X118918500Y-109264500D01*
X118408500Y-109264500D01*
X118408500Y-109774500D01*
X117902500Y-109774500D01*
X117902500Y-109264500D01*
X117392500Y-109264500D01*
X117392500Y-109774500D01*
X116886500Y-109774500D01*
X116886500Y-109264500D01*
X116376500Y-109264500D01*
X116376500Y-109774500D01*
X115870500Y-109774500D01*
X115870500Y-109264500D01*
X115360500Y-109264500D01*
X115360500Y-109774500D01*
X114854500Y-109774500D01*
X114854500Y-109264500D01*
X114344500Y-109264500D01*
X114344500Y-109382434D01*
X113709588Y-109382434D01*
X113588538Y-109283090D01*
X113414728Y-109190186D01*
X113226125Y-109132974D01*
X113030003Y-109113659D01*
X113029997Y-109113659D01*
X112833875Y-109132974D01*
X112833873Y-109132974D01*
X112645271Y-109190186D01*
X112471461Y-109283090D01*
X112319117Y-109408117D01*
X112194090Y-109560461D01*
X112189196Y-109569618D01*
X112149390Y-109644091D01*
X112145218Y-109651896D01*
X112095466Y-109702544D01*
X112034096Y-109718500D01*
X110396500Y-109718500D01*
X110328379Y-109698498D01*
X110281886Y-109644842D01*
X110270500Y-109592500D01*
X110270500Y-108350253D01*
X110270499Y-108350249D01*
X110266800Y-108331654D01*
X110258867Y-108291769D01*
X110229955Y-108248500D01*
X110766174Y-108248500D01*
X110769202Y-108263725D01*
X110770258Y-108269813D01*
X110772089Y-108282153D01*
X110772848Y-108288300D01*
X110775283Y-108313031D01*
X110775738Y-108319202D01*
X110776349Y-108331654D01*
X110776500Y-108337829D01*
X110776500Y-108758500D01*
X110790500Y-108758500D01*
X111296500Y-108758500D01*
X111633873Y-108758500D01*
X114426127Y-108758500D01*
X114854500Y-108758500D01*
X115360500Y-108758500D01*
X115870500Y-108758500D01*
X116376500Y-108758500D01*
X116886500Y-108758500D01*
X117392500Y-108758500D01*
X117902500Y-108758500D01*
X118408500Y-108758500D01*
X118918500Y-108758500D01*
X119424500Y-108758500D01*
X119712515Y-108758500D01*
X121587485Y-108758500D01*
X121966500Y-108758500D01*
X122472500Y-108758500D01*
X122982500Y-108758500D01*
X123488500Y-108758500D01*
X123998500Y-108758500D01*
X123998500Y-108685500D01*
X124504500Y-108685500D01*
X124504500Y-108758500D01*
X125014500Y-108758500D01*
X125014500Y-108642675D01*
X124903013Y-108672549D01*
X124894980Y-108674421D01*
X124878670Y-108677665D01*
X124870539Y-108679008D01*
X124837676Y-108683335D01*
X124829471Y-108684143D01*
X124812875Y-108685231D01*
X124804632Y-108685501D01*
X124614318Y-108685501D01*
X124614286Y-108685500D01*
X124504500Y-108685500D01*
X123998500Y-108685500D01*
X123488500Y-108685500D01*
X123488500Y-108758500D01*
X122982500Y-108758500D01*
X122982500Y-108685500D01*
X122472500Y-108685500D01*
X122472500Y-108758500D01*
X121966500Y-108758500D01*
X121966500Y-108685500D01*
X121676435Y-108685500D01*
X121587485Y-108758500D01*
X119712515Y-108758500D01*
X119608508Y-108673143D01*
X119603824Y-108669102D01*
X119594584Y-108660727D01*
X119590107Y-108656464D01*
X119572536Y-108638893D01*
X119568273Y-108634416D01*
X119559898Y-108625176D01*
X119555857Y-108620492D01*
X119424500Y-108460434D01*
X119424500Y-108758500D01*
X118918500Y-108758500D01*
X118918500Y-108248500D01*
X118408500Y-108248500D01*
X118408500Y-108758500D01*
X117902500Y-108758500D01*
X117902500Y-108248500D01*
X117392500Y-108248500D01*
X117392500Y-108758500D01*
X116886500Y-108758500D01*
X116886500Y-108248500D01*
X116376500Y-108248500D01*
X116376500Y-108758500D01*
X115870500Y-108758500D01*
X115870500Y-108248500D01*
X115360500Y-108248500D01*
X115360500Y-108758500D01*
X114854500Y-108758500D01*
X114854500Y-108248500D01*
X114536500Y-108248500D01*
X114536500Y-108411171D01*
X114536349Y-108417346D01*
X114535738Y-108429798D01*
X114535283Y-108435969D01*
X114532848Y-108460700D01*
X114532089Y-108466847D01*
X114530258Y-108479187D01*
X114529202Y-108485275D01*
X114510289Y-108580359D01*
X114507283Y-108592358D01*
X114500037Y-108616242D01*
X114495871Y-108627883D01*
X114476821Y-108673870D01*
X114471537Y-108685043D01*
X114459774Y-108707051D01*
X114453416Y-108717660D01*
X114426127Y-108758500D01*
X111633873Y-108758500D01*
X111606584Y-108717660D01*
X111600226Y-108707051D01*
X111588463Y-108685043D01*
X111583179Y-108673870D01*
X111564129Y-108627883D01*
X111559963Y-108616242D01*
X111552717Y-108592358D01*
X111549711Y-108580359D01*
X111530798Y-108485275D01*
X111529742Y-108479187D01*
X111527911Y-108466847D01*
X111527152Y-108460700D01*
X111524717Y-108435969D01*
X111524262Y-108429798D01*
X111523651Y-108417346D01*
X111523500Y-108411171D01*
X111523500Y-108248500D01*
X111296500Y-108248500D01*
X111296500Y-108758500D01*
X110790500Y-108758500D01*
X110790500Y-108248500D01*
X110766174Y-108248500D01*
X110229955Y-108248500D01*
X110214552Y-108225448D01*
X110148231Y-108181133D01*
X110148228Y-108181132D01*
X110089750Y-108169500D01*
X110089748Y-108169500D01*
X108350252Y-108169500D01*
X108350249Y-108169500D01*
X108291771Y-108181132D01*
X108291768Y-108181133D01*
X108225448Y-108225448D01*
X108181133Y-108291768D01*
X108181132Y-108291771D01*
X108169500Y-108350249D01*
X107663500Y-108350249D01*
X107663500Y-108337829D01*
X107663651Y-108331654D01*
X107664262Y-108319202D01*
X107664717Y-108313031D01*
X107667152Y-108288300D01*
X107667911Y-108282153D01*
X107669742Y-108269813D01*
X107670798Y-108263725D01*
X107673826Y-108248500D01*
X107232500Y-108248500D01*
X107232500Y-108758500D01*
X106726500Y-108758500D01*
X106726500Y-108248500D01*
X106216500Y-108248500D01*
X106216500Y-108758500D01*
X105710500Y-108758500D01*
X105710500Y-108248500D01*
X105200500Y-108248500D01*
X105200500Y-108758500D01*
X104694500Y-108758500D01*
X104694500Y-108248500D01*
X104184500Y-108248500D01*
X104184500Y-108758500D01*
X103678500Y-108758500D01*
X103678500Y-108248500D01*
X103168500Y-108248500D01*
X103168500Y-108758500D01*
X102662500Y-108758500D01*
X102662500Y-108248500D01*
X102406500Y-108248500D01*
X102406500Y-108758500D01*
X101900500Y-108758500D01*
X101900500Y-107742500D01*
X102406500Y-107742500D01*
X102662500Y-107742500D01*
X103168500Y-107742500D01*
X103678500Y-107742500D01*
X103678500Y-107693516D01*
X103568643Y-107686316D01*
X103556355Y-107684903D01*
X103531731Y-107680837D01*
X103519648Y-107678227D01*
X103471568Y-107665344D01*
X103459794Y-107661560D01*
X103436438Y-107652769D01*
X103425095Y-107647852D01*
X103308917Y-107590560D01*
X103298111Y-107584555D01*
X103276921Y-107571379D01*
X103266755Y-107564343D01*
X103227263Y-107534042D01*
X103217833Y-107526042D01*
X103200476Y-107509786D01*
X104184500Y-107509786D01*
X104184500Y-107742500D01*
X104694500Y-107742500D01*
X105200500Y-107742500D01*
X105710500Y-107742500D01*
X106216500Y-107742500D01*
X106726500Y-107742500D01*
X107232500Y-107742500D01*
X107742500Y-107742500D01*
X107742500Y-107692001D01*
X110280500Y-107692001D01*
X110283358Y-107692717D01*
X110307242Y-107699963D01*
X110318883Y-107704129D01*
X110364870Y-107723179D01*
X110376043Y-107728463D01*
X110398051Y-107740226D01*
X110401845Y-107742500D01*
X110790500Y-107742500D01*
X111296500Y-107742500D01*
X111523500Y-107742500D01*
X111523500Y-107232500D01*
X111296500Y-107232500D01*
X111296500Y-107742500D01*
X110790500Y-107742500D01*
X110790500Y-107232500D01*
X110280500Y-107232500D01*
X110280500Y-107692001D01*
X107742500Y-107692001D01*
X107742500Y-107673826D01*
X108248500Y-107673826D01*
X108263725Y-107670798D01*
X108269813Y-107669742D01*
X108282153Y-107667911D01*
X108288300Y-107667152D01*
X108313031Y-107664717D01*
X108319202Y-107664262D01*
X108331654Y-107663651D01*
X108337829Y-107663500D01*
X108758500Y-107663500D01*
X109264500Y-107663500D01*
X109774500Y-107663500D01*
X109774500Y-107256358D01*
X109597000Y-107238876D01*
X109590861Y-107238119D01*
X109578518Y-107236288D01*
X109572416Y-107235229D01*
X109558702Y-107232500D01*
X109264500Y-107232500D01*
X109264500Y-107663500D01*
X108758500Y-107663500D01*
X108758500Y-107232500D01*
X108248500Y-107232500D01*
X108248500Y-107673826D01*
X107742500Y-107673826D01*
X107742500Y-107232500D01*
X107232500Y-107232500D01*
X107232500Y-107742500D01*
X106726500Y-107742500D01*
X106726500Y-107232500D01*
X106216500Y-107232500D01*
X106216500Y-107742500D01*
X105710500Y-107742500D01*
X105710500Y-107232500D01*
X105200500Y-107232500D01*
X105200500Y-107742500D01*
X104694500Y-107742500D01*
X104694500Y-107232500D01*
X104664775Y-107232500D01*
X104184500Y-107509786D01*
X103200476Y-107509786D01*
X103199613Y-107508978D01*
X103191010Y-107500089D01*
X103168500Y-107474420D01*
X103168500Y-107742500D01*
X102662500Y-107742500D01*
X102662500Y-107232500D01*
X102406500Y-107232500D01*
X102406500Y-107742500D01*
X101900500Y-107742500D01*
X101900500Y-106726500D01*
X102406500Y-106726500D01*
X102662500Y-106726500D01*
X102662500Y-106637100D01*
X102419666Y-106216500D01*
X102406500Y-106216500D01*
X102406500Y-106726500D01*
X101900500Y-106726500D01*
X101900500Y-105713206D01*
X102726801Y-105713206D01*
X102726802Y-105713209D01*
X102726802Y-105713210D01*
X102745969Y-105769675D01*
X103515717Y-107102917D01*
X103555033Y-107147749D01*
X103598281Y-107169076D01*
X103626571Y-107183027D01*
X103706160Y-107188244D01*
X103706160Y-107188243D01*
X103706164Y-107188244D01*
X103762629Y-107169077D01*
X104472471Y-106759249D01*
X112029500Y-106759249D01*
X112029500Y-108398750D01*
X112036903Y-108435969D01*
X112041133Y-108457231D01*
X112085448Y-108523552D01*
X112151769Y-108567867D01*
X112210252Y-108579500D01*
X112210253Y-108579500D01*
X113849747Y-108579500D01*
X113849748Y-108579500D01*
X113908231Y-108567867D01*
X113974552Y-108523552D01*
X114018867Y-108457231D01*
X114030500Y-108398748D01*
X114030500Y-107742500D01*
X114536500Y-107742500D01*
X114854500Y-107742500D01*
X115360500Y-107742500D01*
X115870500Y-107742500D01*
X116376500Y-107742500D01*
X116886500Y-107742500D01*
X117392500Y-107742500D01*
X117902500Y-107742500D01*
X118408500Y-107742500D01*
X118918500Y-107742500D01*
X118918500Y-107578996D01*
X119644659Y-107578996D01*
X119644659Y-107579003D01*
X119663974Y-107775124D01*
X119663974Y-107775126D01*
X119721186Y-107963728D01*
X119799178Y-108109639D01*
X119814090Y-108137538D01*
X119939117Y-108289883D01*
X120091462Y-108414910D01*
X120265273Y-108507814D01*
X120453868Y-108565024D01*
X120453872Y-108565024D01*
X120453874Y-108565025D01*
X120649997Y-108584341D01*
X120650000Y-108584341D01*
X120650003Y-108584341D01*
X120846124Y-108565025D01*
X120846126Y-108565025D01*
X120846127Y-108565024D01*
X120846132Y-108565024D01*
X121034727Y-108507814D01*
X121208538Y-108414910D01*
X121360883Y-108289883D01*
X121413667Y-108225565D01*
X121472343Y-108185597D01*
X121511065Y-108179500D01*
X124622209Y-108179500D01*
X124622225Y-108179501D01*
X124629943Y-108179501D01*
X124788054Y-108179501D01*
X124788057Y-108179501D01*
X124940785Y-108138577D01*
X124965308Y-108124417D01*
X124990881Y-108109653D01*
X124990891Y-108109645D01*
X124990904Y-108109639D01*
X125077716Y-108059520D01*
X125189520Y-107947716D01*
X125189520Y-107947714D01*
X125199889Y-107937346D01*
X125199892Y-107937341D01*
X125468698Y-107668536D01*
X126536500Y-107668536D01*
X126688303Y-107653586D01*
X126694470Y-107653131D01*
X126706926Y-107652519D01*
X126713109Y-107652367D01*
X126737959Y-107652367D01*
X126744142Y-107652519D01*
X126756598Y-107653131D01*
X126762765Y-107653586D01*
X126973829Y-107674373D01*
X126979979Y-107675132D01*
X126992321Y-107676964D01*
X126998406Y-107678020D01*
X127022780Y-107682869D01*
X127028814Y-107684224D01*
X127040905Y-107687253D01*
X127046500Y-107688801D01*
X127046500Y-107456500D01*
X126536500Y-107456500D01*
X126536500Y-107668536D01*
X125468698Y-107668536D01*
X125814495Y-107322740D01*
X127552500Y-107322740D01*
X127552500Y-107742500D01*
X128062500Y-107742500D01*
X128568500Y-107742500D01*
X128733500Y-107742500D01*
X128733500Y-107232500D01*
X128568500Y-107232500D01*
X128568500Y-107742500D01*
X128062500Y-107742500D01*
X128062500Y-107232500D01*
X127659985Y-107232500D01*
X127657945Y-107234750D01*
X127622750Y-107269945D01*
X127613589Y-107278249D01*
X127594298Y-107294081D01*
X127584367Y-107301447D01*
X127552500Y-107322740D01*
X125814495Y-107322740D01*
X126149832Y-106987404D01*
X126212144Y-106953379D01*
X126238927Y-106950500D01*
X127157747Y-106950500D01*
X127157748Y-106950500D01*
X127216231Y-106938867D01*
X127282552Y-106894552D01*
X127326867Y-106828231D01*
X127338500Y-106769748D01*
X127338500Y-106726500D01*
X127844500Y-106726500D01*
X128062500Y-106726500D01*
X128568500Y-106726500D01*
X128733500Y-106726500D01*
X128733500Y-106216500D01*
X128568500Y-106216500D01*
X128568500Y-106726500D01*
X128062500Y-106726500D01*
X128062500Y-106216500D01*
X127844500Y-106216500D01*
X127844500Y-106726500D01*
X127338500Y-106726500D01*
X127338500Y-105330252D01*
X127326867Y-105271769D01*
X127282552Y-105205448D01*
X127275147Y-105200500D01*
X127828604Y-105200500D01*
X127837202Y-105243725D01*
X127838258Y-105249813D01*
X127840089Y-105262153D01*
X127840848Y-105268300D01*
X127843283Y-105293031D01*
X127843738Y-105299202D01*
X127844349Y-105311654D01*
X127844500Y-105317829D01*
X127844500Y-105710500D01*
X128062500Y-105710500D01*
X128568500Y-105710500D01*
X128733500Y-105710500D01*
X128733500Y-105200500D01*
X128568500Y-105200500D01*
X128568500Y-105710500D01*
X128062500Y-105710500D01*
X128062500Y-105200500D01*
X127828604Y-105200500D01*
X127275147Y-105200500D01*
X127216231Y-105161133D01*
X127216228Y-105161132D01*
X127157750Y-105149500D01*
X127157748Y-105149500D01*
X125318252Y-105149500D01*
X125318249Y-105149500D01*
X125259771Y-105161132D01*
X125259768Y-105161133D01*
X125193448Y-105205448D01*
X125149133Y-105271768D01*
X125149132Y-105271771D01*
X125137500Y-105330249D01*
X125137500Y-106249073D01*
X125117498Y-106317194D01*
X125100596Y-106338168D01*
X124497170Y-106941595D01*
X124434857Y-106975620D01*
X124408074Y-106978500D01*
X121511065Y-106978500D01*
X121442944Y-106958498D01*
X121413668Y-106932436D01*
X121360883Y-106868117D01*
X121360880Y-106868114D01*
X121208538Y-106743090D01*
X121034728Y-106650186D01*
X120846125Y-106592974D01*
X120650003Y-106573659D01*
X120649997Y-106573659D01*
X120453875Y-106592974D01*
X120453873Y-106592974D01*
X120265271Y-106650186D01*
X120091461Y-106743090D01*
X119939117Y-106868117D01*
X119814090Y-107020461D01*
X119721186Y-107194271D01*
X119663974Y-107382873D01*
X119663974Y-107382875D01*
X119644659Y-107578996D01*
X118918500Y-107578996D01*
X118918500Y-107232500D01*
X118408500Y-107232500D01*
X118408500Y-107742500D01*
X117902500Y-107742500D01*
X117902500Y-107232500D01*
X117392500Y-107232500D01*
X117392500Y-107742500D01*
X116886500Y-107742500D01*
X116886500Y-107232500D01*
X116376500Y-107232500D01*
X116376500Y-107742500D01*
X115870500Y-107742500D01*
X115870500Y-107232500D01*
X115360500Y-107232500D01*
X115360500Y-107742500D01*
X114854500Y-107742500D01*
X114854500Y-107232500D01*
X114536500Y-107232500D01*
X114536500Y-107742500D01*
X114030500Y-107742500D01*
X114030500Y-106759252D01*
X114018867Y-106700769D01*
X113974552Y-106634448D01*
X113908231Y-106590133D01*
X113908228Y-106590132D01*
X113849750Y-106578500D01*
X113849748Y-106578500D01*
X112210252Y-106578500D01*
X112210249Y-106578500D01*
X112151771Y-106590132D01*
X112151768Y-106590133D01*
X112085448Y-106634448D01*
X112041133Y-106700768D01*
X112041132Y-106700771D01*
X112029500Y-106759249D01*
X104472471Y-106759249D01*
X104529194Y-106726500D01*
X105490233Y-106726500D01*
X105710500Y-106726500D01*
X106216500Y-106726500D01*
X106726500Y-106726500D01*
X107232500Y-106726500D01*
X107742500Y-106726500D01*
X108248500Y-106726500D01*
X108707346Y-106726500D01*
X108620485Y-106620662D01*
X108616678Y-106615784D01*
X108609249Y-106605767D01*
X108605689Y-106600712D01*
X108591881Y-106580047D01*
X108588574Y-106574825D01*
X108582162Y-106564128D01*
X108579112Y-106558744D01*
X108474541Y-106363104D01*
X108471761Y-106357582D01*
X108466430Y-106346311D01*
X108463925Y-106340660D01*
X108454414Y-106317701D01*
X108452185Y-106311922D01*
X108447983Y-106300177D01*
X108446044Y-106294308D01*
X108422441Y-106216500D01*
X108248500Y-106216500D01*
X108248500Y-106726500D01*
X107742500Y-106726500D01*
X107742500Y-106216500D01*
X107232500Y-106216500D01*
X107232500Y-106726500D01*
X106726500Y-106726500D01*
X106726500Y-106216500D01*
X106216500Y-106216500D01*
X106216500Y-106726500D01*
X105710500Y-106726500D01*
X105710500Y-106216500D01*
X105687753Y-106216500D01*
X105687742Y-106217140D01*
X105679270Y-106346403D01*
X105677857Y-106358691D01*
X105673791Y-106383315D01*
X105671181Y-106395398D01*
X105658298Y-106443478D01*
X105654514Y-106455252D01*
X105645723Y-106478608D01*
X105640806Y-106489951D01*
X105583514Y-106606129D01*
X105577509Y-106616935D01*
X105564333Y-106638125D01*
X105557297Y-106648291D01*
X105526996Y-106687783D01*
X105518996Y-106697213D01*
X105501932Y-106715433D01*
X105493043Y-106724036D01*
X105490233Y-106726500D01*
X104529194Y-106726500D01*
X105095871Y-106399329D01*
X105140703Y-106360013D01*
X105175981Y-106288475D01*
X105181198Y-106208882D01*
X105162031Y-106152417D01*
X104930271Y-105750997D01*
X108850161Y-105750997D01*
X108850161Y-105751002D01*
X108869467Y-105947027D01*
X108926650Y-106135535D01*
X109019504Y-106309253D01*
X109019511Y-106309264D01*
X109048851Y-106345014D01*
X109484533Y-105909333D01*
X109534920Y-105996606D01*
X109609394Y-106071080D01*
X109696665Y-106121465D01*
X109260983Y-106557147D01*
X109296735Y-106586488D01*
X109296746Y-106586495D01*
X109470464Y-106679349D01*
X109658972Y-106736532D01*
X109854997Y-106755839D01*
X109855003Y-106755839D01*
X110051027Y-106736532D01*
X110084098Y-106726500D01*
X111296500Y-106726500D01*
X111524387Y-106726500D01*
X111524717Y-106722031D01*
X111527152Y-106697300D01*
X111527911Y-106691153D01*
X111529742Y-106678813D01*
X111530798Y-106672725D01*
X111549711Y-106577641D01*
X111552717Y-106565642D01*
X111559963Y-106541758D01*
X111564129Y-106530117D01*
X111583179Y-106484130D01*
X111588463Y-106472957D01*
X111600226Y-106450949D01*
X111606584Y-106440340D01*
X111678553Y-106332633D01*
X111685919Y-106322702D01*
X111701751Y-106303411D01*
X111710055Y-106294250D01*
X111715500Y-106288805D01*
X114344500Y-106288805D01*
X114349945Y-106294250D01*
X114358249Y-106303411D01*
X114374081Y-106322702D01*
X114381447Y-106332633D01*
X114453416Y-106440340D01*
X114459774Y-106450949D01*
X114471537Y-106472957D01*
X114476821Y-106484130D01*
X114495871Y-106530117D01*
X114500037Y-106541758D01*
X114507283Y-106565642D01*
X114510289Y-106577641D01*
X114529202Y-106672725D01*
X114530258Y-106678813D01*
X114532089Y-106691153D01*
X114532848Y-106697300D01*
X114535283Y-106722031D01*
X114535613Y-106726500D01*
X114854500Y-106726500D01*
X115360500Y-106726500D01*
X115870500Y-106726500D01*
X116376500Y-106726500D01*
X116886500Y-106726500D01*
X117392500Y-106726500D01*
X117902500Y-106726500D01*
X118408500Y-106726500D01*
X118918500Y-106726500D01*
X118918500Y-106697565D01*
X119424500Y-106697565D01*
X119555857Y-106537508D01*
X119559898Y-106532824D01*
X119568273Y-106523584D01*
X119572536Y-106519107D01*
X119590107Y-106501536D01*
X119594584Y-106497273D01*
X119603824Y-106488898D01*
X119608508Y-106484857D01*
X119780063Y-106344064D01*
X119784943Y-106340256D01*
X119794962Y-106332826D01*
X119800016Y-106329266D01*
X119820679Y-106315460D01*
X119825905Y-106312152D01*
X119836600Y-106305742D01*
X119841977Y-106302695D01*
X119843500Y-106301881D01*
X121456500Y-106301881D01*
X121458023Y-106302696D01*
X121463400Y-106305742D01*
X121474095Y-106312152D01*
X121479321Y-106315460D01*
X121499984Y-106329266D01*
X121505038Y-106332826D01*
X121515057Y-106340256D01*
X121519937Y-106344064D01*
X121676435Y-106472500D01*
X121966500Y-106472500D01*
X122472500Y-106472500D01*
X122982500Y-106472500D01*
X123488500Y-106472500D01*
X123998500Y-106472500D01*
X123998500Y-106216500D01*
X123488500Y-106216500D01*
X123488500Y-106472500D01*
X122982500Y-106472500D01*
X122982500Y-106216500D01*
X122472500Y-106216500D01*
X122472500Y-106472500D01*
X121966500Y-106472500D01*
X121966500Y-106216500D01*
X121456500Y-106216500D01*
X121456500Y-106301881D01*
X119843500Y-106301881D01*
X119934500Y-106253239D01*
X119934500Y-106216500D01*
X119424500Y-106216500D01*
X119424500Y-106697565D01*
X118918500Y-106697565D01*
X118918500Y-106216500D01*
X118408500Y-106216500D01*
X118408500Y-106726500D01*
X117902500Y-106726500D01*
X117902500Y-106216500D01*
X117392500Y-106216500D01*
X117392500Y-106726500D01*
X116886500Y-106726500D01*
X116886500Y-106216500D01*
X116376500Y-106216500D01*
X116376500Y-106726500D01*
X115870500Y-106726500D01*
X115870500Y-106216500D01*
X115360500Y-106216500D01*
X115360500Y-106726500D01*
X114854500Y-106726500D01*
X114854500Y-106216500D01*
X114344500Y-106216500D01*
X114344500Y-106288805D01*
X111715500Y-106288805D01*
X111745250Y-106259055D01*
X111754411Y-106250751D01*
X111773702Y-106234919D01*
X111783633Y-106227554D01*
X111800176Y-106216500D01*
X111296500Y-106216500D01*
X111296500Y-106726500D01*
X110084098Y-106726500D01*
X110239535Y-106679349D01*
X110413254Y-106586495D01*
X110413259Y-106586492D01*
X110449015Y-106557146D01*
X110013334Y-106121465D01*
X110100606Y-106071080D01*
X110175080Y-105996606D01*
X110225465Y-105909334D01*
X110661146Y-106345015D01*
X110690492Y-106309259D01*
X110690495Y-106309254D01*
X110783349Y-106135535D01*
X110840532Y-105947027D01*
X110859839Y-105751002D01*
X110859839Y-105750997D01*
X110840532Y-105554972D01*
X110783349Y-105366464D01*
X110755828Y-105314976D01*
X111296500Y-105314976D01*
X111328349Y-105419970D01*
X111329998Y-105425931D01*
X111333026Y-105438020D01*
X111334379Y-105444043D01*
X111339229Y-105468416D01*
X111340288Y-105474518D01*
X111342119Y-105486861D01*
X111342876Y-105493000D01*
X111364298Y-105710500D01*
X111806500Y-105710500D01*
X112312500Y-105710500D01*
X112822500Y-105710500D01*
X113328500Y-105710500D01*
X113838500Y-105710500D01*
X114344500Y-105710500D01*
X114854500Y-105710500D01*
X115360500Y-105710500D01*
X115870500Y-105710500D01*
X116376500Y-105710500D01*
X116886500Y-105710500D01*
X117392500Y-105710500D01*
X117902500Y-105710500D01*
X118408500Y-105710500D01*
X118918500Y-105710500D01*
X119424500Y-105710500D01*
X119934500Y-105710500D01*
X120440500Y-105710500D01*
X120950500Y-105710500D01*
X121456500Y-105710500D01*
X121966500Y-105710500D01*
X122472500Y-105710500D01*
X122982500Y-105710500D01*
X123488500Y-105710500D01*
X123998500Y-105710500D01*
X124504500Y-105710500D01*
X124631500Y-105710500D01*
X124631500Y-105317829D01*
X124631651Y-105311654D01*
X124632262Y-105299202D01*
X124632717Y-105293031D01*
X124635152Y-105268300D01*
X124635911Y-105262153D01*
X124637742Y-105249813D01*
X124638798Y-105243725D01*
X124647396Y-105200500D01*
X124504500Y-105200500D01*
X124504500Y-105710500D01*
X123998500Y-105710500D01*
X123998500Y-105200500D01*
X123488500Y-105200500D01*
X123488500Y-105710500D01*
X122982500Y-105710500D01*
X122982500Y-105200500D01*
X122472500Y-105200500D01*
X122472500Y-105710500D01*
X121966500Y-105710500D01*
X121966500Y-105200500D01*
X121456500Y-105200500D01*
X121456500Y-105710500D01*
X120950500Y-105710500D01*
X120950500Y-105200500D01*
X120440500Y-105200500D01*
X120440500Y-105710500D01*
X119934500Y-105710500D01*
X119934500Y-105200500D01*
X119424500Y-105200500D01*
X119424500Y-105710500D01*
X118918500Y-105710500D01*
X118918500Y-105200500D01*
X118408500Y-105200500D01*
X118408500Y-105710500D01*
X117902500Y-105710500D01*
X117902500Y-105200500D01*
X117392500Y-105200500D01*
X117392500Y-105710500D01*
X116886500Y-105710500D01*
X116886500Y-105200500D01*
X116376500Y-105200500D01*
X116376500Y-105710500D01*
X115870500Y-105710500D01*
X115870500Y-105200500D01*
X115360500Y-105200500D01*
X115360500Y-105710500D01*
X114854500Y-105710500D01*
X114854500Y-105200500D01*
X114344500Y-105200500D01*
X114344500Y-105710500D01*
X113838500Y-105710500D01*
X113838500Y-105200500D01*
X113328500Y-105200500D01*
X113328500Y-105710500D01*
X112822500Y-105710500D01*
X112822500Y-105200500D01*
X112312500Y-105200500D01*
X112312500Y-105710500D01*
X111806500Y-105710500D01*
X111806500Y-105200500D01*
X111296500Y-105200500D01*
X111296500Y-105314976D01*
X110755828Y-105314976D01*
X110690495Y-105192746D01*
X110690488Y-105192735D01*
X110661147Y-105156983D01*
X110225465Y-105592665D01*
X110175080Y-105505394D01*
X110100606Y-105430920D01*
X110013333Y-105380533D01*
X110449014Y-104944851D01*
X110413264Y-104915511D01*
X110413253Y-104915504D01*
X110239535Y-104822650D01*
X110051027Y-104765467D01*
X109855003Y-104746161D01*
X109854997Y-104746161D01*
X109658972Y-104765467D01*
X109470464Y-104822650D01*
X109296740Y-104915507D01*
X109260983Y-104944852D01*
X109696665Y-105380534D01*
X109609394Y-105430920D01*
X109534920Y-105505394D01*
X109484534Y-105592665D01*
X109048852Y-105156983D01*
X109019507Y-105192740D01*
X108926650Y-105366464D01*
X108869467Y-105554972D01*
X108850161Y-105750997D01*
X104930271Y-105750997D01*
X104616222Y-105207048D01*
X105200500Y-105207048D01*
X105491168Y-105710500D01*
X105710500Y-105710500D01*
X106216500Y-105710500D01*
X106726500Y-105710500D01*
X107232500Y-105710500D01*
X107742500Y-105710500D01*
X108248500Y-105710500D01*
X108345702Y-105710500D01*
X108367124Y-105493000D01*
X108367881Y-105486861D01*
X108369712Y-105474518D01*
X108370771Y-105468416D01*
X108375621Y-105444043D01*
X108376974Y-105438020D01*
X108380002Y-105425931D01*
X108381651Y-105419970D01*
X108446044Y-105207692D01*
X108447983Y-105201823D01*
X108448456Y-105200500D01*
X108248500Y-105200500D01*
X108248500Y-105710500D01*
X107742500Y-105710500D01*
X107742500Y-105200500D01*
X107232500Y-105200500D01*
X107232500Y-105710500D01*
X106726500Y-105710500D01*
X106726500Y-105200500D01*
X106216500Y-105200500D01*
X106216500Y-105710500D01*
X105710500Y-105710500D01*
X105710500Y-105200500D01*
X105200500Y-105200500D01*
X105200500Y-105207048D01*
X104616222Y-105207048D01*
X104392283Y-104819175D01*
X104352967Y-104774343D01*
X104334968Y-104765467D01*
X104281428Y-104739064D01*
X104201839Y-104733847D01*
X104201836Y-104733848D01*
X104145370Y-104753015D01*
X102812128Y-105522763D01*
X102767297Y-105562078D01*
X102732018Y-105633617D01*
X102726801Y-105713206D01*
X101900500Y-105713206D01*
X101900500Y-104694500D01*
X102406500Y-104694500D01*
X102662500Y-104694500D01*
X103168500Y-104694500D01*
X103234724Y-104694500D01*
X105200500Y-104694500D01*
X105710500Y-104694500D01*
X106216500Y-104694500D01*
X106726500Y-104694500D01*
X107232500Y-104694500D01*
X107742500Y-104694500D01*
X108248500Y-104694500D01*
X108753108Y-104694500D01*
X108748957Y-104692537D01*
X108726949Y-104680774D01*
X108716340Y-104674416D01*
X108608633Y-104602447D01*
X108598702Y-104595081D01*
X108579411Y-104579249D01*
X108570250Y-104570945D01*
X108535055Y-104535750D01*
X108526751Y-104526589D01*
X108510919Y-104507298D01*
X108503553Y-104497367D01*
X108431584Y-104389660D01*
X108425226Y-104379051D01*
X108413500Y-104357112D01*
X111296500Y-104357112D01*
X111296500Y-104694500D01*
X111806500Y-104694500D01*
X112312500Y-104694500D01*
X112822500Y-104694500D01*
X113328500Y-104694500D01*
X113838500Y-104694500D01*
X114344500Y-104694500D01*
X114854500Y-104694500D01*
X115360500Y-104694500D01*
X115870500Y-104694500D01*
X116376500Y-104694500D01*
X116886500Y-104694500D01*
X117392500Y-104694500D01*
X117902500Y-104694500D01*
X118408500Y-104694500D01*
X118918500Y-104694500D01*
X119424500Y-104694500D01*
X119934500Y-104694500D01*
X120440500Y-104694500D01*
X120950500Y-104694500D01*
X121456500Y-104694500D01*
X121966500Y-104694500D01*
X122472500Y-104694500D01*
X122982500Y-104694500D01*
X123488500Y-104694500D01*
X123998500Y-104694500D01*
X124504500Y-104694500D01*
X125014500Y-104694500D01*
X125014500Y-104474884D01*
X124972345Y-104432729D01*
X124968080Y-104428250D01*
X124959710Y-104419015D01*
X124955677Y-104414340D01*
X124939911Y-104395132D01*
X124936097Y-104390245D01*
X124928664Y-104380222D01*
X124925106Y-104375170D01*
X124812804Y-104207098D01*
X124809494Y-104201870D01*
X124803084Y-104191175D01*
X124800038Y-104185800D01*
X124799343Y-104184500D01*
X124504500Y-104184500D01*
X124504500Y-104694500D01*
X123998500Y-104694500D01*
X123998500Y-104184500D01*
X123488500Y-104184500D01*
X123488500Y-104694500D01*
X122982500Y-104694500D01*
X122982500Y-104184500D01*
X122472500Y-104184500D01*
X122472500Y-104694500D01*
X121966500Y-104694500D01*
X121966500Y-104184500D01*
X121456500Y-104184500D01*
X121456500Y-104694500D01*
X120950500Y-104694500D01*
X120950500Y-104184500D01*
X120440500Y-104184500D01*
X120440500Y-104694500D01*
X119934500Y-104694500D01*
X119934500Y-104184500D01*
X119424500Y-104184500D01*
X119424500Y-104694500D01*
X118918500Y-104694500D01*
X118918500Y-104184500D01*
X118408500Y-104184500D01*
X118408500Y-104694500D01*
X117902500Y-104694500D01*
X117902500Y-104184500D01*
X117392500Y-104184500D01*
X117392500Y-104694500D01*
X116886500Y-104694500D01*
X116886500Y-104184500D01*
X116376500Y-104184500D01*
X116376500Y-104694500D01*
X115870500Y-104694500D01*
X115870500Y-104184500D01*
X115360500Y-104184500D01*
X115360500Y-104694500D01*
X114854500Y-104694500D01*
X114854500Y-104184500D01*
X114344500Y-104184500D01*
X114344500Y-104694500D01*
X113838500Y-104694500D01*
X113838500Y-104184500D01*
X113328500Y-104184500D01*
X113328500Y-104694500D01*
X112822500Y-104694500D01*
X112822500Y-104184500D01*
X112312500Y-104184500D01*
X112312500Y-104694500D01*
X111806500Y-104694500D01*
X111806500Y-104184500D01*
X111348787Y-104184500D01*
X111335289Y-104252359D01*
X111332283Y-104264358D01*
X111325037Y-104288242D01*
X111320871Y-104299883D01*
X111301821Y-104345870D01*
X111296537Y-104357043D01*
X111296500Y-104357112D01*
X108413500Y-104357112D01*
X108413463Y-104357043D01*
X108408179Y-104345870D01*
X108389129Y-104299883D01*
X108384963Y-104288242D01*
X108377717Y-104264358D01*
X108374711Y-104252359D01*
X108361213Y-104184500D01*
X108248500Y-104184500D01*
X108248500Y-104694500D01*
X107742500Y-104694500D01*
X107742500Y-104184500D01*
X107232500Y-104184500D01*
X107232500Y-104694500D01*
X106726500Y-104694500D01*
X106726500Y-104184500D01*
X106216500Y-104184500D01*
X106216500Y-104694500D01*
X105710500Y-104694500D01*
X105710500Y-104184500D01*
X105200500Y-104184500D01*
X105200500Y-104694500D01*
X103234724Y-104694500D01*
X103678500Y-104438285D01*
X103678500Y-104227533D01*
X104184500Y-104227533D01*
X104197734Y-104227101D01*
X104210094Y-104227304D01*
X104339357Y-104235776D01*
X104351645Y-104237189D01*
X104376269Y-104241255D01*
X104388352Y-104243865D01*
X104436432Y-104256748D01*
X104448206Y-104260532D01*
X104471562Y-104269323D01*
X104482905Y-104274240D01*
X104599083Y-104331532D01*
X104609889Y-104337537D01*
X104631079Y-104350713D01*
X104641245Y-104357749D01*
X104680737Y-104388050D01*
X104690167Y-104396050D01*
X104694500Y-104400108D01*
X104694500Y-104184500D01*
X104184500Y-104184500D01*
X104184500Y-104227533D01*
X103678500Y-104227533D01*
X103678500Y-104184500D01*
X103168500Y-104184500D01*
X103168500Y-104694500D01*
X102662500Y-104694500D01*
X102662500Y-104184500D01*
X102406500Y-104184500D01*
X102406500Y-104694500D01*
X101900500Y-104694500D01*
X101900500Y-104143804D01*
X101900730Y-104136197D01*
X101903905Y-104083712D01*
X101916368Y-103877652D01*
X101918199Y-103862575D01*
X101951932Y-103678500D01*
X102472374Y-103678500D01*
X102662500Y-103678500D01*
X103168500Y-103678500D01*
X103678500Y-103678500D01*
X104184500Y-103678500D01*
X104694500Y-103678500D01*
X105200500Y-103678500D01*
X105710500Y-103678500D01*
X106216500Y-103678500D01*
X106726500Y-103678500D01*
X107232500Y-103678500D01*
X107742500Y-103678500D01*
X108248500Y-103678500D01*
X108348500Y-103678500D01*
X108348500Y-103168500D01*
X108248500Y-103168500D01*
X108248500Y-103678500D01*
X107742500Y-103678500D01*
X107742500Y-103168500D01*
X107232500Y-103168500D01*
X107232500Y-103678500D01*
X106726500Y-103678500D01*
X106726500Y-103168500D01*
X106216500Y-103168500D01*
X106216500Y-103678500D01*
X105710500Y-103678500D01*
X105710500Y-103168500D01*
X105200500Y-103168500D01*
X105200500Y-103678500D01*
X104694500Y-103678500D01*
X104694500Y-103168500D01*
X104184500Y-103168500D01*
X104184500Y-103678500D01*
X103678500Y-103678500D01*
X103678500Y-103168500D01*
X103168500Y-103168500D01*
X103168500Y-103678500D01*
X102662500Y-103678500D01*
X102662500Y-103241169D01*
X102605884Y-103334822D01*
X102520013Y-103525621D01*
X102472374Y-103678500D01*
X101951932Y-103678500D01*
X101964204Y-103611536D01*
X101967838Y-103596792D01*
X102043767Y-103353125D01*
X102049156Y-103338918D01*
X102153896Y-103106194D01*
X102160958Y-103092738D01*
X102292994Y-102874325D01*
X102301613Y-102861837D01*
X102457784Y-102662500D01*
X103241169Y-102662500D01*
X103678500Y-102662500D01*
X104184500Y-102662500D01*
X104694500Y-102662500D01*
X105200500Y-102662500D01*
X105710500Y-102662500D01*
X106216500Y-102662500D01*
X106726500Y-102662500D01*
X107232500Y-102662500D01*
X107742500Y-102662500D01*
X108248500Y-102662500D01*
X108348500Y-102662500D01*
X108348500Y-102431249D01*
X108854500Y-102431249D01*
X108854500Y-104070750D01*
X108860405Y-104100438D01*
X108866133Y-104129231D01*
X108910448Y-104195552D01*
X108976769Y-104239867D01*
X109035252Y-104251500D01*
X109035253Y-104251500D01*
X110674747Y-104251500D01*
X110674748Y-104251500D01*
X110733231Y-104239867D01*
X110799552Y-104195552D01*
X110843867Y-104129231D01*
X110855500Y-104070748D01*
X110855500Y-103678500D01*
X111361500Y-103678500D01*
X111806500Y-103678500D01*
X112312500Y-103678500D01*
X112822500Y-103678500D01*
X113328500Y-103678500D01*
X113838500Y-103678500D01*
X114344500Y-103678500D01*
X114854500Y-103678500D01*
X115360500Y-103678500D01*
X115870500Y-103678500D01*
X116376500Y-103678500D01*
X116886500Y-103678500D01*
X117392500Y-103678500D01*
X117902500Y-103678500D01*
X118408500Y-103678500D01*
X118918500Y-103678500D01*
X119424500Y-103678500D01*
X119934500Y-103678500D01*
X120440500Y-103678500D01*
X120950500Y-103678500D01*
X121456500Y-103678500D01*
X121966500Y-103678500D01*
X122472500Y-103678500D01*
X122982500Y-103678500D01*
X123488500Y-103678500D01*
X123998500Y-103678500D01*
X124504500Y-103678500D01*
X124637972Y-103678500D01*
X124631174Y-103644323D01*
X124632529Y-103589126D01*
X124652349Y-103510000D01*
X124632529Y-103430874D01*
X124631174Y-103375677D01*
X124634292Y-103360000D01*
X125150205Y-103360000D01*
X125864082Y-103360000D01*
X125838000Y-103457339D01*
X125838000Y-103562661D01*
X125864082Y-103660000D01*
X125150205Y-103660000D01*
X125172586Y-103772518D01*
X125172588Y-103772525D01*
X125240430Y-103936310D01*
X125338921Y-104083712D01*
X125338926Y-104083719D01*
X125464280Y-104209073D01*
X125464287Y-104209078D01*
X125611689Y-104307569D01*
X125775474Y-104375411D01*
X125775479Y-104375413D01*
X125949355Y-104409999D01*
X125949359Y-104410000D01*
X126088000Y-104410000D01*
X126088000Y-103883918D01*
X126185339Y-103910000D01*
X126290661Y-103910000D01*
X126388000Y-103883918D01*
X126388000Y-104410000D01*
X126526641Y-104410000D01*
X126526644Y-104409999D01*
X126700520Y-104375413D01*
X126700525Y-104375411D01*
X126706911Y-104372766D01*
X127552500Y-104372766D01*
X127552500Y-104694500D01*
X128062500Y-104694500D01*
X128568500Y-104694500D01*
X128733500Y-104694500D01*
X128733500Y-104184500D01*
X128568500Y-104184500D01*
X128568500Y-104694500D01*
X128062500Y-104694500D01*
X128062500Y-104184500D01*
X127676657Y-104184500D01*
X127675962Y-104185800D01*
X127672916Y-104191175D01*
X127666506Y-104201870D01*
X127663196Y-104207098D01*
X127552500Y-104372766D01*
X126706911Y-104372766D01*
X126864310Y-104307569D01*
X127011712Y-104209078D01*
X127011719Y-104209073D01*
X127137073Y-104083719D01*
X127137078Y-104083712D01*
X127235569Y-103936310D01*
X127303411Y-103772525D01*
X127303413Y-103772518D01*
X127325795Y-103660000D01*
X126611918Y-103660000D01*
X126638000Y-103562661D01*
X126638000Y-103457339D01*
X126611918Y-103360000D01*
X127325794Y-103360000D01*
X127303413Y-103247481D01*
X127303411Y-103247474D01*
X127270699Y-103168500D01*
X127803617Y-103168500D01*
X127844826Y-103375677D01*
X127843471Y-103430875D01*
X127823650Y-103510000D01*
X127843471Y-103589125D01*
X127844826Y-103644323D01*
X127838028Y-103678500D01*
X128062500Y-103678500D01*
X128568500Y-103678500D01*
X128667624Y-103678500D01*
X128619984Y-103525621D01*
X128568500Y-103411226D01*
X128568500Y-103678500D01*
X128062500Y-103678500D01*
X128062500Y-103168500D01*
X127803617Y-103168500D01*
X127270699Y-103168500D01*
X127235569Y-103083689D01*
X127137078Y-102936287D01*
X127137073Y-102936280D01*
X127011719Y-102810926D01*
X127011712Y-102810921D01*
X126864310Y-102712430D01*
X126706913Y-102647234D01*
X127552500Y-102647234D01*
X127562700Y-102662500D01*
X127898829Y-102662500D01*
X127805175Y-102605884D01*
X127614376Y-102520013D01*
X127552500Y-102500731D01*
X127552500Y-102647234D01*
X126706913Y-102647234D01*
X126700525Y-102644588D01*
X126700520Y-102644586D01*
X126526644Y-102610000D01*
X126388000Y-102610000D01*
X126388000Y-103136081D01*
X126290661Y-103110000D01*
X126185339Y-103110000D01*
X126088000Y-103136081D01*
X126088000Y-102610000D01*
X125949355Y-102610000D01*
X125775479Y-102644586D01*
X125775474Y-102644588D01*
X125611689Y-102712430D01*
X125464287Y-102810921D01*
X125464280Y-102810926D01*
X125338926Y-102936280D01*
X125338921Y-102936287D01*
X125240430Y-103083689D01*
X125172588Y-103247474D01*
X125172586Y-103247481D01*
X125150205Y-103360000D01*
X124634292Y-103360000D01*
X124672383Y-103168500D01*
X124504500Y-103168500D01*
X124504500Y-103678500D01*
X123998500Y-103678500D01*
X123998500Y-103168500D01*
X123488500Y-103168500D01*
X123488500Y-103678500D01*
X122982500Y-103678500D01*
X122982500Y-103168500D01*
X122472500Y-103168500D01*
X122472500Y-103678500D01*
X121966500Y-103678500D01*
X121966500Y-103168500D01*
X121456500Y-103168500D01*
X121456500Y-103678500D01*
X120950500Y-103678500D01*
X120950500Y-103168500D01*
X120440500Y-103168500D01*
X120440500Y-103678500D01*
X119934500Y-103678500D01*
X119934500Y-103168500D01*
X119424500Y-103168500D01*
X119424500Y-103678500D01*
X118918500Y-103678500D01*
X118918500Y-103168500D01*
X118408500Y-103168500D01*
X118408500Y-103678500D01*
X117902500Y-103678500D01*
X117902500Y-103168500D01*
X117392500Y-103168500D01*
X117392500Y-103678500D01*
X116886500Y-103678500D01*
X116886500Y-103168500D01*
X116376500Y-103168500D01*
X116376500Y-103678500D01*
X115870500Y-103678500D01*
X115870500Y-103168500D01*
X115360500Y-103168500D01*
X115360500Y-103678500D01*
X114854500Y-103678500D01*
X114854500Y-103168500D01*
X114344500Y-103168500D01*
X114344500Y-103678500D01*
X113838500Y-103678500D01*
X113838500Y-103168500D01*
X113328500Y-103168500D01*
X113328500Y-103678500D01*
X112822500Y-103678500D01*
X112822500Y-103168500D01*
X112312500Y-103168500D01*
X112312500Y-103678500D01*
X111806500Y-103678500D01*
X111806500Y-103168500D01*
X111361500Y-103168500D01*
X111361500Y-103678500D01*
X110855500Y-103678500D01*
X110855500Y-102431252D01*
X110850577Y-102406500D01*
X111361047Y-102406500D01*
X111361349Y-102412654D01*
X111361500Y-102418829D01*
X111361500Y-102662500D01*
X111806500Y-102662500D01*
X112312500Y-102662500D01*
X112822500Y-102662500D01*
X113328500Y-102662500D01*
X113838500Y-102662500D01*
X114344500Y-102662500D01*
X114854500Y-102662500D01*
X115360500Y-102662500D01*
X115870500Y-102662500D01*
X116376500Y-102662500D01*
X116886500Y-102662500D01*
X117392500Y-102662500D01*
X117902500Y-102662500D01*
X118408500Y-102662500D01*
X118918500Y-102662500D01*
X119424500Y-102662500D01*
X119934500Y-102662500D01*
X120440500Y-102662500D01*
X120950500Y-102662500D01*
X121456500Y-102662500D01*
X121966500Y-102662500D01*
X122472500Y-102662500D01*
X122982500Y-102662500D01*
X123488500Y-102662500D01*
X123998500Y-102662500D01*
X124504500Y-102662500D01*
X124913300Y-102662500D01*
X124925106Y-102644831D01*
X124928664Y-102639778D01*
X124936097Y-102629755D01*
X124939911Y-102624868D01*
X124955677Y-102605660D01*
X124959710Y-102600985D01*
X124968080Y-102591750D01*
X124972345Y-102587271D01*
X125014500Y-102545116D01*
X125014500Y-102406500D01*
X124504500Y-102406500D01*
X124504500Y-102662500D01*
X123998500Y-102662500D01*
X123998500Y-102406500D01*
X123488500Y-102406500D01*
X123488500Y-102662500D01*
X122982500Y-102662500D01*
X122982500Y-102406500D01*
X122472500Y-102406500D01*
X122472500Y-102662500D01*
X121966500Y-102662500D01*
X121966500Y-102406500D01*
X121456500Y-102406500D01*
X121456500Y-102662500D01*
X120950500Y-102662500D01*
X120950500Y-102406500D01*
X120440500Y-102406500D01*
X120440500Y-102662500D01*
X119934500Y-102662500D01*
X119934500Y-102406500D01*
X119424500Y-102406500D01*
X119424500Y-102662500D01*
X118918500Y-102662500D01*
X118918500Y-102406500D01*
X118408500Y-102406500D01*
X118408500Y-102662500D01*
X117902500Y-102662500D01*
X117902500Y-102406500D01*
X117392500Y-102406500D01*
X117392500Y-102662500D01*
X116886500Y-102662500D01*
X116886500Y-102406500D01*
X116376500Y-102406500D01*
X116376500Y-102662500D01*
X115870500Y-102662500D01*
X115870500Y-102406500D01*
X115360500Y-102406500D01*
X115360500Y-102662500D01*
X114854500Y-102662500D01*
X114854500Y-102406500D01*
X114344500Y-102406500D01*
X114344500Y-102662500D01*
X113838500Y-102662500D01*
X113838500Y-102406500D01*
X113328500Y-102406500D01*
X113328500Y-102662500D01*
X112822500Y-102662500D01*
X112822500Y-102406500D01*
X112312500Y-102406500D01*
X112312500Y-102662500D01*
X111806500Y-102662500D01*
X111806500Y-102406500D01*
X111361047Y-102406500D01*
X110850577Y-102406500D01*
X110843867Y-102372769D01*
X110799552Y-102306448D01*
X110733231Y-102262133D01*
X110733228Y-102262132D01*
X110674750Y-102250500D01*
X110674748Y-102250500D01*
X109035252Y-102250500D01*
X109035249Y-102250500D01*
X108976771Y-102262132D01*
X108976768Y-102262133D01*
X108910448Y-102306448D01*
X108866133Y-102372768D01*
X108866132Y-102372771D01*
X108854500Y-102431249D01*
X108348500Y-102431249D01*
X108348500Y-102418829D01*
X108348651Y-102412654D01*
X108348953Y-102406500D01*
X108248500Y-102406500D01*
X108248500Y-102662500D01*
X107742500Y-102662500D01*
X107742500Y-102406500D01*
X107232500Y-102406500D01*
X107232500Y-102662500D01*
X106726500Y-102662500D01*
X106726500Y-102406500D01*
X106216500Y-102406500D01*
X106216500Y-102662500D01*
X105710500Y-102662500D01*
X105710500Y-102406500D01*
X105200500Y-102406500D01*
X105200500Y-102662500D01*
X104694500Y-102662500D01*
X104694500Y-102406500D01*
X104184500Y-102406500D01*
X104184500Y-102662500D01*
X103678500Y-102662500D01*
X103678500Y-102472373D01*
X103525621Y-102520013D01*
X103334822Y-102605884D01*
X103241169Y-102662500D01*
X102457784Y-102662500D01*
X102459024Y-102660917D01*
X102469092Y-102649554D01*
X102649554Y-102469092D01*
X102660917Y-102459024D01*
X102861837Y-102301613D01*
X102874325Y-102292994D01*
X103092738Y-102160958D01*
X103106194Y-102153896D01*
X103338918Y-102049156D01*
X103353125Y-102043767D01*
X103596792Y-101967838D01*
X103611536Y-101964204D01*
X103862575Y-101918199D01*
X103877652Y-101916368D01*
X104136198Y-101900730D01*
X104143805Y-101900500D01*
X104187595Y-101900500D01*
X126952405Y-101900500D01*
X126996195Y-101900500D01*
X127003802Y-101900730D01*
G37*
%TD.AperFunction*%
%TD*%
M02*
