%TF.GenerationSoftware,KiCad,Pcbnew,8.0.7*%
%TF.CreationDate,2024-12-14T00:48:09+01:00*%
%TF.ProjectId,FF2_20241213_1510,4646325f-3230-4323-9431-3231335f3135,0.2.0*%
%TF.SameCoordinates,Original*%
%TF.FileFunction,Legend,Top*%
%TF.FilePolarity,Positive*%
%FSLAX46Y46*%
G04 Gerber Fmt 4.6, Leading zero omitted, Abs format (unit mm)*
G04 Created by KiCad (PCBNEW 8.0.7) date 2024-12-14 00:48:09*
%MOMM*%
%LPD*%
G01*
G04 APERTURE LIST*
%ADD10C,0.150000*%
%ADD11C,0.254000*%
%ADD12C,0.120000*%
%ADD13C,0.200000*%
G04 APERTURE END LIST*
D10*
X106132333Y-103229580D02*
X106084714Y-103277200D01*
X106084714Y-103277200D02*
X105941857Y-103324819D01*
X105941857Y-103324819D02*
X105846619Y-103324819D01*
X105846619Y-103324819D02*
X105703762Y-103277200D01*
X105703762Y-103277200D02*
X105608524Y-103181961D01*
X105608524Y-103181961D02*
X105560905Y-103086723D01*
X105560905Y-103086723D02*
X105513286Y-102896247D01*
X105513286Y-102896247D02*
X105513286Y-102753390D01*
X105513286Y-102753390D02*
X105560905Y-102562914D01*
X105560905Y-102562914D02*
X105608524Y-102467676D01*
X105608524Y-102467676D02*
X105703762Y-102372438D01*
X105703762Y-102372438D02*
X105846619Y-102324819D01*
X105846619Y-102324819D02*
X105941857Y-102324819D01*
X105941857Y-102324819D02*
X106084714Y-102372438D01*
X106084714Y-102372438D02*
X106132333Y-102420057D01*
X107084714Y-103324819D02*
X106513286Y-103324819D01*
X106799000Y-103324819D02*
X106799000Y-102324819D01*
X106799000Y-102324819D02*
X106703762Y-102467676D01*
X106703762Y-102467676D02*
X106608524Y-102562914D01*
X106608524Y-102562914D02*
X106513286Y-102610533D01*
X116078095Y-110833819D02*
X116078095Y-111643342D01*
X116078095Y-111643342D02*
X116125714Y-111738580D01*
X116125714Y-111738580D02*
X116173333Y-111786200D01*
X116173333Y-111786200D02*
X116268571Y-111833819D01*
X116268571Y-111833819D02*
X116459047Y-111833819D01*
X116459047Y-111833819D02*
X116554285Y-111786200D01*
X116554285Y-111786200D02*
X116601904Y-111738580D01*
X116601904Y-111738580D02*
X116649523Y-111643342D01*
X116649523Y-111643342D02*
X116649523Y-110833819D01*
X117649523Y-111833819D02*
X117078095Y-111833819D01*
X117363809Y-111833819D02*
X117363809Y-110833819D01*
X117363809Y-110833819D02*
X117268571Y-110976676D01*
X117268571Y-110976676D02*
X117173333Y-111071914D01*
X117173333Y-111071914D02*
X117078095Y-111119533D01*
X120229333Y-103229580D02*
X120181714Y-103277200D01*
X120181714Y-103277200D02*
X120038857Y-103324819D01*
X120038857Y-103324819D02*
X119943619Y-103324819D01*
X119943619Y-103324819D02*
X119800762Y-103277200D01*
X119800762Y-103277200D02*
X119705524Y-103181961D01*
X119705524Y-103181961D02*
X119657905Y-103086723D01*
X119657905Y-103086723D02*
X119610286Y-102896247D01*
X119610286Y-102896247D02*
X119610286Y-102753390D01*
X119610286Y-102753390D02*
X119657905Y-102562914D01*
X119657905Y-102562914D02*
X119705524Y-102467676D01*
X119705524Y-102467676D02*
X119800762Y-102372438D01*
X119800762Y-102372438D02*
X119943619Y-102324819D01*
X119943619Y-102324819D02*
X120038857Y-102324819D01*
X120038857Y-102324819D02*
X120181714Y-102372438D01*
X120181714Y-102372438D02*
X120229333Y-102420057D01*
X120610286Y-102420057D02*
X120657905Y-102372438D01*
X120657905Y-102372438D02*
X120753143Y-102324819D01*
X120753143Y-102324819D02*
X120991238Y-102324819D01*
X120991238Y-102324819D02*
X121086476Y-102372438D01*
X121086476Y-102372438D02*
X121134095Y-102420057D01*
X121134095Y-102420057D02*
X121181714Y-102515295D01*
X121181714Y-102515295D02*
X121181714Y-102610533D01*
X121181714Y-102610533D02*
X121134095Y-102753390D01*
X121134095Y-102753390D02*
X120562667Y-103324819D01*
X120562667Y-103324819D02*
X121181714Y-103324819D01*
D11*
X124843433Y-111807774D02*
X124415802Y-112235406D01*
X124415802Y-112235406D02*
X123517776Y-111337380D01*
X125613169Y-111038038D02*
X125100012Y-111551196D01*
X125356591Y-111294617D02*
X124458565Y-110396591D01*
X124458565Y-110396591D02*
X124501328Y-110610407D01*
X124501328Y-110610407D02*
X124501328Y-110781460D01*
X124501328Y-110781460D02*
X124458565Y-110909749D01*
D10*
X114514333Y-103324819D02*
X114181000Y-102848628D01*
X113942905Y-103324819D02*
X113942905Y-102324819D01*
X113942905Y-102324819D02*
X114323857Y-102324819D01*
X114323857Y-102324819D02*
X114419095Y-102372438D01*
X114419095Y-102372438D02*
X114466714Y-102420057D01*
X114466714Y-102420057D02*
X114514333Y-102515295D01*
X114514333Y-102515295D02*
X114514333Y-102658152D01*
X114514333Y-102658152D02*
X114466714Y-102753390D01*
X114466714Y-102753390D02*
X114419095Y-102801009D01*
X114419095Y-102801009D02*
X114323857Y-102848628D01*
X114323857Y-102848628D02*
X113942905Y-102848628D01*
X115466714Y-103324819D02*
X114895286Y-103324819D01*
X115181000Y-103324819D02*
X115181000Y-102324819D01*
X115181000Y-102324819D02*
X115085762Y-102467676D01*
X115085762Y-102467676D02*
X114990524Y-102562914D01*
X114990524Y-102562914D02*
X114895286Y-102610533D01*
X110791666Y-115532819D02*
X110791666Y-116247104D01*
X110791666Y-116247104D02*
X110744047Y-116389961D01*
X110744047Y-116389961D02*
X110648809Y-116485200D01*
X110648809Y-116485200D02*
X110505952Y-116532819D01*
X110505952Y-116532819D02*
X110410714Y-116532819D01*
X111791666Y-116532819D02*
X111220238Y-116532819D01*
X111505952Y-116532819D02*
X111505952Y-115532819D01*
X111505952Y-115532819D02*
X111410714Y-115675676D01*
X111410714Y-115675676D02*
X111315476Y-115770914D01*
X111315476Y-115770914D02*
X111220238Y-115818533D01*
D11*
X104298792Y-107799850D02*
X103996411Y-107276111D01*
X103996411Y-107276111D02*
X105096264Y-106641111D01*
X105475325Y-107539570D02*
X105557937Y-107561706D01*
X105557937Y-107561706D02*
X105670787Y-107636215D01*
X105670787Y-107636215D02*
X105821978Y-107898085D01*
X105821978Y-107898085D02*
X105830080Y-108033071D01*
X105830080Y-108033071D02*
X105807944Y-108115683D01*
X105807944Y-108115683D02*
X105733434Y-108228533D01*
X105733434Y-108228533D02*
X105628687Y-108289009D01*
X105628687Y-108289009D02*
X105441327Y-108327350D01*
X105441327Y-108327350D02*
X104449983Y-108061720D01*
X104449983Y-108061720D02*
X104843078Y-108742581D01*
D12*
%TO.C,D1*%
X125349000Y-106938999D02*
G75*
G02*
X127127000Y-106938999I889000J2158999D01*
G01*
X124968000Y-106939000D02*
X127508000Y-106939000D01*
X125253750Y-104589500D02*
X124428250Y-103764000D01*
X125253750Y-105256250D02*
X124428250Y-104430750D01*
X125666500Y-105097500D02*
X126809500Y-105097500D01*
X124968000Y-106939000D02*
G75*
G02*
X127508000Y-106939000I1270000J2159000D01*
G01*
X124428250Y-104145000D02*
X124428250Y-103764000D01*
X124809250Y-103764000D01*
X124428250Y-104145000D01*
G36*
X124428250Y-104145000D02*
G01*
X124428250Y-103764000D01*
X124809250Y-103764000D01*
X124428250Y-104145000D01*
G37*
X124428250Y-104811750D02*
X124428250Y-104430750D01*
X124809250Y-104430750D01*
X124428250Y-104811750D01*
G36*
X124428250Y-104811750D02*
G01*
X124428250Y-104430750D01*
X124809250Y-104430750D01*
X124428250Y-104811750D01*
G37*
X126238000Y-105097500D02*
X125666500Y-104462500D01*
X126809500Y-104462500D01*
X126238000Y-105097500D01*
G36*
X126238000Y-105097500D02*
G01*
X125666500Y-104462500D01*
X126809500Y-104462500D01*
X126238000Y-105097500D01*
G37*
%TO.C,C1*%
X107569148Y-104533725D02*
G75*
G02*
X112140999Y-104521000I2285852J32725D01*
G01*
X108815000Y-104741000D02*
X107286000Y-104741000D01*
X108815000Y-104781000D02*
X107290000Y-104781000D01*
X108815000Y-104821000D02*
X107294000Y-104821000D01*
X108815000Y-104861000D02*
X107299000Y-104861000D01*
X108815000Y-104901000D02*
X107305000Y-104901000D01*
X108815000Y-104941000D02*
X107312000Y-104941000D01*
X108815000Y-104981000D02*
X107319000Y-104981000D01*
X108815000Y-105021000D02*
X107327000Y-105021000D01*
X108815000Y-105061000D02*
X107335000Y-105061000D01*
X108815000Y-105101000D02*
X107344000Y-105101000D01*
X108815000Y-105141000D02*
X107354000Y-105141000D01*
X108815000Y-105181000D02*
X107364000Y-105181000D01*
X108815000Y-105222000D02*
X107375000Y-105222000D01*
X108815000Y-105262000D02*
X107387000Y-105262000D01*
X108815000Y-105302000D02*
X107400000Y-105302000D01*
X108815000Y-105342000D02*
X107413000Y-105342000D01*
X108815000Y-105382000D02*
X107427000Y-105382000D01*
X108815000Y-105422000D02*
X107441000Y-105422000D01*
X108815000Y-105462000D02*
X107457000Y-105462000D01*
X108815000Y-105502000D02*
X107473000Y-105502000D01*
X108815000Y-105542000D02*
X107490000Y-105542000D01*
X108815000Y-105582000D02*
X107507000Y-105582000D01*
X108815000Y-105622000D02*
X107526000Y-105622000D01*
X108815000Y-105662000D02*
X107545000Y-105662000D01*
X108815000Y-105702000D02*
X107565000Y-105702000D01*
X108815000Y-105742000D02*
X107587000Y-105742000D01*
X108815000Y-105782000D02*
X107608000Y-105782000D01*
X108815000Y-105822000D02*
X107631000Y-105822000D01*
X108815000Y-105862000D02*
X107655000Y-105862000D01*
X108815000Y-105902000D02*
X107680000Y-105902000D01*
X108815000Y-105942000D02*
X107706000Y-105942000D01*
X108815000Y-105982000D02*
X107733000Y-105982000D01*
X108815000Y-106022000D02*
X107760000Y-106022000D01*
X108815000Y-106062000D02*
X107790000Y-106062000D01*
X108815000Y-106102000D02*
X107820000Y-106102000D01*
X108815000Y-106142000D02*
X107851000Y-106142000D01*
X108815000Y-106182000D02*
X107884000Y-106182000D01*
X108815000Y-106222000D02*
X107918000Y-106222000D01*
X108815000Y-106262000D02*
X107954000Y-106262000D01*
X108815000Y-106302000D02*
X107991000Y-106302000D01*
X108815000Y-106342000D02*
X108029000Y-106342000D01*
X108815000Y-106382000D02*
X108070000Y-106382000D01*
X108815000Y-106422000D02*
X108112000Y-106422000D01*
X108815000Y-106462000D02*
X108156000Y-106462000D01*
X108815000Y-106502000D02*
X108202000Y-106502000D01*
X108815000Y-106542000D02*
X108250000Y-106542000D01*
X108815000Y-106582000D02*
X108301000Y-106582000D01*
X108815000Y-106622000D02*
X108355000Y-106622000D01*
X108815000Y-106662000D02*
X108412000Y-106662000D01*
X108815000Y-106702000D02*
X108472000Y-106702000D01*
X108815000Y-106742000D02*
X108536000Y-106742000D01*
X108815000Y-106782000D02*
X108604000Y-106782000D01*
X110139000Y-107102000D02*
X109571000Y-107102000D01*
X110373000Y-107062000D02*
X109337000Y-107062000D01*
X110532000Y-107022000D02*
X109178000Y-107022000D01*
X110660000Y-106982000D02*
X109050000Y-106982000D01*
X110770000Y-106942000D02*
X108940000Y-106942000D01*
X110866000Y-106902000D02*
X108844000Y-106902000D01*
X110953000Y-106862000D02*
X108757000Y-106862000D01*
X111033000Y-106822000D02*
X108677000Y-106822000D01*
X111106000Y-106782000D02*
X110895000Y-106782000D01*
X111174000Y-106742000D02*
X110895000Y-106742000D01*
X111238000Y-106702000D02*
X110895000Y-106702000D01*
X111298000Y-106662000D02*
X110895000Y-106662000D01*
X111125000Y-103005000D02*
X111125000Y-103505000D01*
X111355000Y-106622000D02*
X110895000Y-106622000D01*
X111409000Y-106582000D02*
X110895000Y-106582000D01*
X111460000Y-106542000D02*
X110895000Y-106542000D01*
X111508000Y-106502000D02*
X110895000Y-106502000D01*
X111554000Y-106462000D02*
X110895000Y-106462000D01*
X111375000Y-103255000D02*
X110875000Y-103255000D01*
X111598000Y-106422000D02*
X110895000Y-106422000D01*
X111640000Y-106382000D02*
X110895000Y-106382000D01*
X111681000Y-106342000D02*
X110895000Y-106342000D01*
X111719000Y-106302000D02*
X110895000Y-106302000D01*
X111756000Y-106262000D02*
X110895000Y-106262000D01*
X111792000Y-106222000D02*
X110895000Y-106222000D01*
X111826000Y-106182000D02*
X110895000Y-106182000D01*
X111859000Y-106142000D02*
X110895000Y-106142000D01*
X111890000Y-106102000D02*
X110895000Y-106102000D01*
X111920000Y-106062000D02*
X110895000Y-106062000D01*
X111950000Y-106022000D02*
X110895000Y-106022000D01*
X111977000Y-105982000D02*
X110895000Y-105982000D01*
X112004000Y-105942000D02*
X110895000Y-105942000D01*
X112030000Y-105902000D02*
X110895000Y-105902000D01*
X112055000Y-105862000D02*
X110895000Y-105862000D01*
X112079000Y-105822000D02*
X110895000Y-105822000D01*
X112102000Y-105782000D02*
X110895000Y-105782000D01*
X112123000Y-105742000D02*
X110895000Y-105742000D01*
X112145000Y-105702000D02*
X110895000Y-105702000D01*
X112165000Y-105662000D02*
X110895000Y-105662000D01*
X112184000Y-105622000D02*
X110895000Y-105622000D01*
X112203000Y-105582000D02*
X110895000Y-105582000D01*
X112220000Y-105542000D02*
X110895000Y-105542000D01*
X112237000Y-105502000D02*
X110895000Y-105502000D01*
X112253000Y-105462000D02*
X110895000Y-105462000D01*
X112269000Y-105422000D02*
X110895000Y-105422000D01*
X112283000Y-105382000D02*
X110895000Y-105382000D01*
X112297000Y-105342000D02*
X110895000Y-105342000D01*
X112310000Y-105302000D02*
X110895000Y-105302000D01*
X112323000Y-105262000D02*
X110895000Y-105262000D01*
X112335000Y-105222000D02*
X110895000Y-105222000D01*
X112346000Y-105181000D02*
X110895000Y-105181000D01*
X112356000Y-105141000D02*
X110895000Y-105141000D01*
X112366000Y-105101000D02*
X110895000Y-105101000D01*
X112375000Y-105061000D02*
X110895000Y-105061000D01*
X112383000Y-105021000D02*
X110895000Y-105021000D01*
X112391000Y-104981000D02*
X110895000Y-104981000D01*
X112398000Y-104941000D02*
X110895000Y-104941000D01*
X112405000Y-104901000D02*
X110895000Y-104901000D01*
X112411000Y-104861000D02*
X110895000Y-104861000D01*
X112416000Y-104821000D02*
X110895000Y-104821000D01*
X112420000Y-104781000D02*
X110895000Y-104781000D01*
X112424000Y-104741000D02*
X110895000Y-104741000D01*
X112428000Y-104701000D02*
X107282000Y-104701000D01*
X112431000Y-104661000D02*
X107279000Y-104661000D01*
X112433000Y-104621000D02*
X107277000Y-104621000D01*
X112434000Y-104581000D02*
X107276000Y-104581000D01*
X112435000Y-104501000D02*
X107275000Y-104501000D01*
X112435000Y-104541000D02*
X107275000Y-104541000D01*
%TO.C,U1*%
X114190000Y-106690000D02*
X114190000Y-115961000D01*
X114190000Y-115961000D02*
X119490000Y-115961000D01*
X115840000Y-106690000D02*
X114190000Y-106690000D01*
X119490000Y-106690000D02*
X117840000Y-106690000D01*
X119490000Y-115961000D02*
X119490000Y-106690000D01*
X117840000Y-106690000D02*
G75*
G02*
X115840000Y-106690000I-1000000J0D01*
G01*
%TO.C,C2*%
X118554500Y-103695500D02*
X118554500Y-105600500D01*
X118554500Y-105600500D02*
X122237500Y-105600500D01*
X120269000Y-104330500D02*
X120269000Y-104965500D01*
X120269000Y-104648000D02*
X120205500Y-104648000D01*
X120523000Y-104648000D02*
X120586500Y-104648000D01*
X120523000Y-104965500D02*
X120523000Y-104330500D01*
X122237500Y-103695500D02*
X118554500Y-103695500D01*
X122237500Y-105537000D02*
X122237500Y-103695500D01*
X122237500Y-105600500D02*
X122237500Y-105537000D01*
D13*
%TO.C,L1*%
X122285406Y-113603594D02*
G75*
G02*
X122185406Y-113603594I-50000J0D01*
G01*
X122185406Y-113603594D02*
G75*
G02*
X122285406Y-113603594I50000J0D01*
G01*
D12*
%TO.C,R1*%
X112839500Y-103695500D02*
X112839500Y-105600500D01*
X112839500Y-105600500D02*
X116522500Y-105600500D01*
X116522500Y-103695500D02*
X112839500Y-103695500D01*
X116522500Y-105600500D02*
X116522500Y-103695500D01*
%TO.C,J1*%
X107890000Y-107890000D02*
X109220000Y-107890000D01*
X107890000Y-109220000D02*
X107890000Y-107890000D01*
X107890000Y-110490000D02*
X107890000Y-115630000D01*
X107890000Y-110490000D02*
X110550000Y-110490000D01*
X107890000Y-115630000D02*
X110550000Y-115630000D01*
X110550000Y-110490000D02*
X110550000Y-115630000D01*
D13*
%TO.C,L2*%
X103328998Y-104791912D02*
G75*
G02*
X103229002Y-104791912I-49998J0D01*
G01*
X103229002Y-104791912D02*
G75*
G02*
X103328998Y-104791912I49998J0D01*
G01*
%TD*%
M02*
